<svg xmlns="http://www.w3.org/2000/svg" xmlns:xlink="http://www.w3.org/1999/xlink" width="512" height="512" viewBox="0 0 512 512"><defs><clipPath id="b"><rect width="512" height="512"/></clipPath></defs><g id="a" clip-path="url(#b)"><g transform="translate(119.1 120.098)"><g transform="translate(3.498 3.5)"><path d="M236.421,3.5A18.412,18.412,0,0,0,218.01,21.91h36.821A18.409,18.409,0,0,0,236.421,3.5Z" transform="translate(10.978 -3.5)" fill="#cccbca"/><path d="M125.385,3.5a18.409,18.409,0,0,0-18.411,18.41V171.163H207.093a18.407,18.407,0,0,0,18.41-18.407V21.91A18.412,18.412,0,0,1,243.914,3.5Z" transform="translate(3.485 -3.5)" fill="#f3f3f3"/><path d="M174.929,95.438a18.412,18.412,0,0,0-18.41,18.41v130.84a18.41,18.41,0,0,1-18.412,18.41H37.988V113.847A18.41,18.41,0,0,1,56.4,95.437H174.929Z" transform="translate(-1.17 2.704)" fill="#fff"/><path d="M185.844,146.551v-32.7a18.408,18.408,0,1,0-36.816,0v51.11h55.228A18.41,18.41,0,0,1,185.844,146.551Z" transform="translate(6.323 2.704)" fill="#cccbca"/><path d="M39.152,235.255v18.409H20.744A18.4,18.4,0,0,0,39.152,235.255Z" transform="translate(-2.334 12.14)" fill="#cccbca"/><path d="M122.033,235.255H3.5a18.405,18.405,0,0,0,18.41,18.409H140.433A18.4,18.4,0,0,1,122.033,235.255Z" transform="translate(-3.498 12.14)" fill="#cccbca"/></g><g transform="translate(53.576 120.053)"><g transform="translate(0)"><rect width="92.013" height="4.09" fill="#36404a"/><rect width="46.004" height="4.09" transform="translate(0 8.18)" fill="#e6e5e5"/></g><g transform="translate(0 101.977)"><rect width="92.013" height="4.09" fill="#e6e5e5"/><rect width="92.013" height="4.088" transform="translate(0 8.183)" fill="#e6e5e5"/><rect width="46.004" height="4.088" transform="translate(0 16.36)" fill="#e6e5e5"/></g><g transform="translate(0 26.452)"><path d="M102.767,189.685a30.672,30.672,0,1,1-33.415-50.032l11.722,28.342Z" transform="translate(-50.41 -137.317)" fill="#36404a"/><path d="M109.811,168.137H79.139V137.465A30.676,30.676,0,0,1,109.811,168.137Z" transform="translate(-48.471 -137.465)" fill="#569af4"/><path d="M109.811,166.2a30.583,30.583,0,0,1-8.984,21.69L79.138,166.2Z" transform="translate(-48.471 -135.526)" fill="#e6e5e5"/><path d="M79.875,137.465v30.678L68.153,139.8A30.28,30.28,0,0,1,79.875,137.465Z" transform="translate(-49.213 -137.465)" fill="#51b0f8"/><g transform="translate(68.683)"><rect width="7.159" height="7.157" fill="#569af4"/><rect width="7.159" height="7.154" transform="translate(0 18.062)" fill="#e6e5e5"/><rect width="7.156" height="7.154" transform="translate(0.001 36.125)" fill="#36404a"/><rect width="7.159" height="7.155" transform="translate(0 54.188)" fill="#51b0f8"/><g transform="translate(11.971 3.069)"><rect width="11.358" height="4.088" fill="#e6e5e5"/><rect width="11.358" height="4.088" transform="translate(0 18.059)" fill="#e6e5e5"/><rect width="11.358" height="4.088" transform="translate(0 36.122)" fill="#e6e5e5"/><rect width="11.358" height="4.088" transform="translate(0 54.186)" fill="#e6e5e5"/></g></g></g></g><g transform="translate(127.217 21.91)"><rect width="13.147" height="11.021" transform="translate(0 39.592)" fill="#36404a"/><rect width="13.147" height="26.854" transform="translate(19.714 23.759)" fill="#cccbca"/><rect width="13.141" height="17.976" transform="translate(39.433 32.636)" fill="#cccbca"/><rect width="13.141" height="50.614" transform="translate(59.151)" fill="#569af4"/><rect width="13.139" height="32.496" transform="translate(78.872 18.116)" fill="#cccbca"/><g transform="translate(0 59.039)"><rect width="92.01" height="4.091" fill="#cccbca"/><rect width="92.01" height="4.09" transform="translate(0 8.179)" fill="#cccbca"/></g><rect width="32.866" height="12.269" fill="#cccbca"/><rect width="24.69" height="4.091" transform="translate(4.088 4.088)" fill="#fff"/><path d="M144.441,38.815l-6.577-6.576h6.577Z" transform="translate(-118.15 -19.97)" fill="#cccbca"/></g></g></g></svg>