<svg xmlns="http://www.w3.org/2000/svg" xmlns:xlink="http://www.w3.org/1999/xlink" width="512" height="512" viewBox="0 0 512 512"><defs><clipPath id="b"><rect width="512" height="512"/></clipPath></defs><g id="a" clip-path="url(#b)"><g transform="translate(107.98 104.203)"><path d="M40.893,109.723l101.459,67.641V42.07Z" transform="translate(6.148 7.093)" fill="#aab5be"/><path d="M228.985,109.723,127.506,177.363V42.07Z" transform="translate(20.995 7.093)" fill="#cdd3da"/><path d="M40.893,99.823v118.4l101.459,67.65V167.464Z" transform="translate(6.148 16.993)" fill="#51b0f8"/><path d="M228.985,99.823v118.4L172.1,256.174l-44.592,29.7V167.464Z" transform="translate(20.995 16.993)" fill="#569af4"/><path d="M169.53.688,127.506,49.163l101.479,67.653,42-48.482Z" transform="translate(20.995 0)" fill="#fff"/><path d="M148.5,167.464l-41.966,48.485L5.046,148.291,47.038,99.823Z" transform="translate(0.004 16.993)" fill="#fff"/><path d="M148.5,49.163,47.041,116.816,5.025,68.334,106.535.688Z" transform="translate(0 0)" fill="#fff"/><path d="M270.988,148.291,169.512,215.949l-42.006-48.485L228.985,99.823Z" transform="translate(20.995 16.993)" fill="#fff"/></g></g></svg>