<svg xmlns="http://www.w3.org/2000/svg" xmlns:xlink="http://www.w3.org/1999/xlink" width="512" height="512" viewBox="0 0 512 512"><defs><clipPath id="b"><rect width="512" height="512"/></clipPath></defs><g id="a" clip-path="url(#b)"><g transform="translate(69.505 75.277)"><g transform="translate(1.131 90.203)"><path d="M178.4,123.029A102.837,102.837,0,0,1,281.13,225.753h57.257a159.978,159.978,0,0,0-319.956,0H75.685A102.835,102.835,0,0,1,178.4,123.029Z" transform="translate(6.827 -65.769)" fill="#51b0f8"/><path d="M178.414,65.775A159.96,159.96,0,0,0,18.445,225.745H42.02c0-75.211,61.158-136.4,136.392-136.4,75.2,0,136.407,61.187,136.407,136.4h23.574A159.986,159.986,0,0,0,178.414,65.775Z" transform="translate(6.834 -65.771)" fill="#569af4"/><g transform="translate(0 159.983)"><rect width="370.466" height="57.249" fill="#51b0f8"/><rect width="370.466" height="23.575" transform="translate(0 33.673)" fill="#569af4"/><g transform="translate(15.833 40.414)"><rect width="2.018" height="16.834" transform="translate(336.788)" fill="#364a5e"/><rect width="2.015" height="16.834" transform="translate(303.102)" fill="#364a5e"/><rect width="2.016" height="16.834" transform="translate(269.432)" fill="#364a5e"/><rect width="2.027" height="16.834" transform="translate(235.741)" fill="#364a5e"/><rect width="2.018" height="16.834" transform="translate(202.073)" fill="#364a5e"/><rect width="2.024" height="16.834" transform="translate(168.386)" fill="#364a5e"/><rect width="2.015" height="16.834" transform="translate(134.712)" fill="#364a5e"/><rect width="2.009" height="16.834" transform="translate(101.037)" fill="#364a5e"/><rect width="2.019" height="16.834" transform="translate(67.353)" fill="#364a5e"/><rect width="2.019" height="16.834" transform="translate(33.679)" fill="#364a5e"/><rect width="2.021" height="16.834" fill="#364a5e"/></g><g transform="translate(32.839 48.831)"><g transform="translate(0)"><rect width="1.68" height="8.419" fill="#364a5e"/><rect width="1.689" height="8.419" transform="translate(33.674)" fill="#364a5e"/><rect width="1.683" height="8.419" transform="translate(67.354)" fill="#364a5e"/><rect width="1.68" height="8.419" transform="translate(101.036)" fill="#364a5e"/><rect width="1.682" height="8.419" transform="translate(134.716)" fill="#364a5e"/><rect width="1.673" height="8.419" transform="translate(168.397)" fill="#364a5e"/><rect width="1.688" height="8.419" transform="translate(202.066)" fill="#364a5e"/><rect width="1.68" height="8.419" transform="translate(235.753)" fill="#364a5e"/><rect width="1.691" height="8.419" transform="translate(269.422)" fill="#364a5e"/><rect width="1.682" height="8.419" transform="translate(303.11)" fill="#364a5e"/></g></g></g><g transform="translate(25.257)"><rect width="16.843" height="2.025" transform="translate(0 157.958)" fill="#364a5e"/><path d="M36.915,158.56l-.355,1.991-16.583-2.929.356-1.983Z" transform="translate(-17.718 -24.43)" fill="#364a5e"/><rect width="2.022" height="16.84" transform="translate(25.797 110.085) rotate(110.138)" fill="#364a5e"/><path d="M48.365,128.378l-1.018,1.749L32.766,121.7l1.019-1.742Z" transform="translate(-11.835 -40.844)" fill="#364a5e"/><rect width="2.015" height="16.846" transform="translate(51.01 67.195) rotate(129.844)" fill="#364a5e"/><rect width="2.012" height="16.844" transform="translate(68.757 49.666) rotate(139.961)" fill="#364a5e"/><rect width="2.018" height="16.839" transform="matrix(-0.867, 0.498, -0.498, -0.867, 89.277, 35.529)" fill="#364a5e"/><path d="M97.541,87.968l-1.9.7L89.883,72.839l1.9-.7Z" transform="translate(14.441 -62.843)" fill="#364a5e"/><rect width="2.01" height="16.834" transform="matrix(-0.985, 0.175, -0.175, -0.985, 136.1, 18.846)" fill="#364a5e"/><rect width="2.009" height="16.84" transform="translate(158.983)" fill="#364a5e"/><rect width="2.018" height="16.844" transform="translate(185.89 19.183) rotate(-170.218)" fill="#364a5e"/><rect width="2.018" height="16.849" transform="matrix(-0.939, -0.343, 0.343, -0.939, 209.886, 25.826)" fill="#364a5e"/><rect width="2.015" height="16.852" transform="matrix(-0.867, -0.498, 0.498, -0.867, 232.447, 36.527)" fill="#364a5e"/><path d="M192.045,105.158,190.5,103.87l10.833-12.9,1.537,1.3Z" transform="translate(60.727 -54.182)" fill="#364a5e"/><path d="M203.963,116.754l-1.3-1.539,12.9-10.833,1.3,1.556Z" transform="translate(66.325 -48.01)" fill="#364a5e"/><rect width="2.012" height="16.843" transform="translate(284.43 89.231) rotate(-119.847)" fill="#364a5e"/><rect width="2.012" height="16.849" transform="translate(294.868 112.004) rotate(-110.195)" fill="#364a5e"/><rect width="2.015" height="16.84" transform="translate(301.139 136.143) rotate(-100.067)" fill="#364a5e"/><rect width="16.856" height="2.018" transform="translate(303.103 157.958)" fill="#364a5e"/></g><g transform="translate(25.772 0.531)"><g transform="translate(0 0)"><rect width="1.689" height="8.423" transform="translate(8.537 145.41) rotate(94.893)" fill="#364a5e"/><rect width="1.688" height="8.42" transform="translate(13.289 119.424) rotate(104.856)" fill="#364a5e"/><path d="M36.8,132.069l-.714,1.532-7.635-3.565.721-1.518Z" transform="translate(-14.333 -37.438)" fill="#364a5e"/><rect width="1.676" height="8.423" transform="matrix(-0.571, 0.821, -0.821, -0.571, 35.818, 71.818)" fill="#364a5e"/><rect width="1.688" height="8.42" transform="translate(52.89 51.669) rotate(134.915)" fill="#364a5e"/><rect width="1.683" height="8.424" transform="matrix(-0.819, 0.574, -0.574, -0.819, 73.229, 34.783)" fill="#364a5e"/><rect width="1.688" height="8.417" transform="translate(96.161 21.746) rotate(155.178)" fill="#364a5e"/><rect width="1.694" height="8.421" transform="translate(121.075 12.823) rotate(164.823)" fill="#364a5e"/><rect width="1.685" height="8.421" transform="matrix(-0.997, 0.084, -0.084, -0.997, 147.087, 8.413)" fill="#364a5e"/><rect width="1.675" height="8.429" transform="translate(173.519 8.54) rotate(-175.141)" fill="#364a5e"/><rect width="1.683" height="8.411" transform="translate(199.491 13.28) rotate(-164.681)" fill="#364a5e"/><path d="M172.89,84.142l-1.529-.715,3.561-7.636,1.517.721Z" transform="translate(51.409 -61.694)" fill="#364a5e"/><path d="M188.453,93.128l-1.372-.972,4.825-6.9,1.383.974Z" transform="translate(58.64 -57.339)" fill="#364a5e"/><rect width="1.679" height="8.419" transform="translate(267.208 52.871) rotate(-134.814)" fill="#364a5e"/><rect width="1.679" height="8.411" transform="translate(284.12 73.19) rotate(-124.744)" fill="#364a5e"/><rect width="1.689" height="8.424" transform="translate(297.197 96.172) rotate(-115.007)" fill="#364a5e"/><rect width="1.683" height="8.424" transform="matrix(-0.257, -0.966, 0.966, -0.257, 306.1, 121.02)" fill="#364a5e"/><rect width="1.679" height="8.427" transform="translate(310.548 147.087) rotate(-94.968)" fill="#364a5e"/></g></g></g><g transform="translate(117.986 12.665)"><rect width="3.795" height="13.266" transform="translate(66.491 34.547)" fill="#f3f9fd"/><rect width="5.42" height="5.418" transform="translate(65.684 46.823)" fill="#5e6e7f"/><rect width="119.228" height="3.792" transform="translate(8.784 174.34)" fill="#364a5e"/><rect width="5.42" height="32.515" transform="translate(65.684 159.979)" fill="#f3f9fd"/><path d="M137.061,100.786a28.715,28.715,0,1,1,28.712-28.713A28.752,28.752,0,0,1,137.061,100.786Zm0-54.18a25.47,25.47,0,1,0,25.466,25.469A25.5,25.5,0,0,0,137.061,46.606Z" transform="translate(-68.669 1.454)" fill="#364a5e"/><g transform="translate(68.392 79.016)"><g transform="translate(60.836 242.451)"><path d="M174.182,245.08a.708.708,0,0,0,.488.031L175.1,245a.944.944,0,0,0,.415-.276.843.843,0,0,0,.152-.473l-.054-4.841-4.179,1.12,2.384,4.228A.73.73,0,0,0,174.182,245.08Z" transform="translate(-168.868 -229.82)" fill="#5e6e7f"/><rect width="4.326" height="9.905" transform="matrix(-0.965, 0.261, -0.261, -0.965, 6.761, 9.561)" fill="#364a5e"/></g><path d="M172.164,213.562l7.5,28a5.416,5.416,0,0,1-3.834,6.636l-.515.143a2.714,2.714,0,0,1-3.323-1.914L163.786,215.8Z" transform="translate(-111.552 0.739)" fill="#f3f9fd"/><path d="M154.977,189.022l11.4,42.572,15.7-4.206-43.024-160.6-5.5,1.467L128.01,88.393l14.335,53.518,5.458-1.457,12.625,47.109Z" transform="translate(-128.01 -66.784)" fill="#5e6e7f"/><path d="M154.291,180.99l21.191,79.116,3.957-1.059,4.879-28.814-14.329-53.45Z" transform="translate(-115.92 -16.18)" fill="#364a5e"/><path d="M185.45,216.088a10.837,10.837,0,1,1-13.275-7.668A10.819,10.819,0,0,1,185.45,216.088Z" transform="translate(-111.387 -1.798)" fill="#f3f9fd"/><circle cx="2.707" cy="2.707" r="2.707" transform="translate(60.888 214.384)" fill="#5e6e7f"/><rect width="1.619" height="27.1" transform="translate(38.376 136.742) rotate(-15.261)" fill="#364a5e"/><path d="M171.563,180.622l-5.228,1.4-5.614-20.941,5.233-1.391Z" transform="translate(-112.962 -24.045)" fill="#f3f9fd"/><rect width="2.178" height="5.412" transform="matrix(-0.966, 0.259, -0.259, -0.966, 35.595, 154.348)" fill="#f3f9fd"/></g><g transform="translate(0 79.016)"><path d="M85.249,233.086l-2.824,10.527-.063,4.408,2.154-3.847,2.825-10.522Z" transform="translate(-80.617 9.721)" fill="#e1effa"/><path d="M85.809,225.956l-3.361,12.555a3.224,3.224,0,0,0,.32,2.47,3.247,3.247,0,0,0,4.436,1.187,3.264,3.264,0,0,0,1.52-1.971l3.361-12.562Z" transform="translate(-80.63 6.441)" fill="#f3f9fd"/><path d="M117.144,187.562l12.623-47.109,5.453,1.457,14.339-53.518-5.547-20.141-5.5-1.467L81.167,280.838l4.865,28.824,3.949,1.048L122.6,189.022Z" transform="translate(-81.167 -66.784)" fill="#5e6e7f"/><circle cx="10.838" cy="10.838" r="10.838" transform="translate(57.555 10.771)" fill="#f3f9fd"/><circle cx="2.711" cy="2.711" r="2.711" transform="translate(65.681 18.896)" fill="#5e6e7f"/></g><g transform="translate(34.204 173.525)"><circle cx="2.708" cy="2.708" r="2.708" fill="#364a5e"/><circle cx="2.707" cy="2.707" r="2.707" transform="translate(62.961)" fill="#364a5e"/></g><g transform="translate(25.155 173.527)"><rect width="5.42" height="5.415" fill="#f3f9fd"/><rect width="5.42" height="5.415" transform="translate(81.048)" fill="#f3f9fd"/></g><path d="M137.984,32.195l-3.8,14.832H126.6l-3.787-14.832Z" transform="translate(-62.008 -3.681)" fill="#5e6e7f"/><rect width="15.168" height="28.514" transform="translate(60.806)" fill="#364a5e"/></g></g></g></svg>