<svg xmlns="http://www.w3.org/2000/svg" xmlns:xlink="http://www.w3.org/1999/xlink" width="512" height="512" viewBox="0 0 512 512"><defs><clipPath id="b"><rect width="512" height="512"/></clipPath></defs><g id="a" clip-path="url(#b)"><g transform="translate(-0.556 48.413)"><g transform="translate(64.667 66.733)"><rect width="64.111" height="254.083" fill="#36404a"/><g transform="translate(16.023 193.65)"><path d="M72.436,178.974a16.028,16.028,0,1,1-16.023-16A16.037,16.037,0,0,1,72.436,178.974Z" transform="translate(-40.38 -162.971)" fill="#fff"/><path d="M68.051,177.517a13.113,13.113,0,1,1-13.1-13.107A13.1,13.1,0,0,1,68.051,177.517Z" transform="translate(-38.916 -161.514)" fill="#242e39"/></g><g transform="translate(11.659 12.822)"><rect width="40.793" height="152.437" fill="#fff"/><g transform="translate(7.284 8.015)"><rect width="26.227" height="28.851" fill="#cccbca"/><rect width="26.227" height="14.425" transform="translate(0 121.986)" fill="#cccbca"/><rect width="26.227" height="3.216" transform="translate(0 38.479)" fill="#cccbca"/><rect width="26.227" height="3.205" transform="translate(0 51.335)" fill="#cccbca"/><rect width="26.227" height="3.213" transform="translate(0 64.171)" fill="#cccbca"/><rect width="26.227" height="3.211" transform="translate(0 77.023)" fill="#cccbca"/><rect width="26.227" height="3.216" transform="translate(0 89.869)" fill="#cccbca"/></g></g><g transform="translate(64.111)"><rect width="64.111" height="254.083" fill="#51b0f8"/><g transform="translate(16.025 193.65)"><path d="M104.3,178.974a16.027,16.027,0,1,1-16.023-16A16.035,16.035,0,0,1,104.3,178.974Z" transform="translate(-72.242 -162.971)" fill="#fff"/><path d="M99.912,177.517a13.113,13.113,0,1,1-13.1-13.107A13.1,13.1,0,0,1,99.912,177.517Z" transform="translate(-70.779 -161.514)" fill="#242e39"/></g><g transform="translate(11.659 12.822)"><rect width="40.793" height="152.437" fill="#fff"/><g transform="translate(7.282 8.015)"><rect width="26.227" height="28.851" fill="#cccbca"/><rect width="26.227" height="14.425" transform="translate(0 121.986)" fill="#cccbca"/><rect width="26.227" height="3.216" transform="translate(0 38.479)" fill="#cccbca"/><rect width="26.227" height="3.205" transform="translate(0 51.335)" fill="#cccbca"/><rect width="26.227" height="3.213" transform="translate(0 64.171)" fill="#cccbca"/><rect width="26.227" height="3.211" transform="translate(0 77.023)" fill="#cccbca"/><rect width="26.227" height="3.216" transform="translate(0 89.869)" fill="#cccbca"/></g></g></g><g transform="translate(128.222)"><rect width="64.111" height="254.083" transform="translate(0)" fill="#36404a"/><g transform="translate(16.023 193.65)"><path d="M136.158,178.974a16.028,16.028,0,1,1-16.023-16A16.037,16.037,0,0,1,136.158,178.974Z" transform="translate(-104.102 -162.971)" fill="#fff"/><path d="M131.774,177.517a13.113,13.113,0,1,1-13.1-13.107A13.1,13.1,0,0,1,131.774,177.517Z" transform="translate(-102.637 -161.514)" fill="#242e39"/></g><g transform="translate(11.659 12.822)"><rect width="40.793" height="152.437" fill="#fff"/><g transform="translate(7.284 8.015)"><rect width="26.227" height="28.851" fill="#cccbca"/><rect width="26.227" height="14.425" transform="translate(0 121.986)" fill="#cccbca"/><rect width="26.227" height="3.216" transform="translate(0 38.479)" fill="#cccbca"/><rect width="26.227" height="3.205" transform="translate(0 51.335)" fill="#cccbca"/><rect width="26.227" height="3.213" transform="translate(0 64.171)" fill="#cccbca"/><rect width="26.227" height="3.211" transform="translate(0 77.023)" fill="#cccbca"/><rect width="26.227" height="3.216" transform="translate(0 89.869)" fill="#cccbca"/></g></g></g><g transform="translate(192.332)"><rect width="64.111" height="254.083" fill="#51b0f8"/><g transform="translate(16.025 193.65)"><path d="M168.02,178.974a16.028,16.028,0,1,1-16.023-16A16.035,16.035,0,0,1,168.02,178.974Z" transform="translate(-135.964 -162.971)" fill="#fff"/><path d="M163.633,177.517a13.113,13.113,0,1,1-13.1-13.107A13.1,13.1,0,0,1,163.633,177.517Z" transform="translate(-134.502 -161.514)" fill="#242e39"/></g><g transform="translate(11.659 12.822)"><rect width="40.791" height="152.437" fill="#fff"/><g transform="translate(7.284 8.015)"><rect width="26.225" height="28.851" fill="#cccbca"/><rect width="26.225" height="14.425" transform="translate(0 121.986)" fill="#cccbca"/><rect width="26.225" height="3.216" transform="translate(0 38.479)" fill="#cccbca"/><rect width="26.225" height="3.205" transform="translate(0 51.335)" fill="#cccbca"/><rect width="26.225" height="3.213" transform="translate(0 64.171)" fill="#cccbca"/><rect width="26.225" height="3.211" transform="translate(0 77.023)" fill="#cccbca"/><rect width="26.225" height="3.216" transform="translate(0 89.869)" fill="#cccbca"/></g></g></g><rect width="128.222" height="254.083" transform="translate(256.443)" fill="#569af4"/></g><g transform="translate(0.556 320.818)"><rect width="384.667" height="27.62" transform="translate(0 0)" fill="#666b74"/><rect width="128.224" height="27.62" transform="translate(384.667 0)" fill="#242e39"/></g></g></g></svg>