<svg xmlns="http://www.w3.org/2000/svg" xmlns:xlink="http://www.w3.org/1999/xlink" width="512" height="512" viewBox="0 0 512 512"><defs><clipPath id="b"><rect width="512" height="512"/></clipPath></defs><g id="a" clip-path="url(#b)"><g transform="translate(58.658 77.36)"><path d="M.167,309.7V61.344H394.184V309.7H.167" transform="translate(0 15.065)" fill="#d8d8d8"/><path d="M13.261,282.319V74.665H366.909V282.321H13.261" transform="translate(7.086 22.273)" fill="#fff"/><path d="M394.184,76.779V33.505H.167V76.779H394.184" transform="translate(0 0)" fill="#569af4"/><path d="M326.711,49.649a6.072,6.072,0,0,1-6.047,6.109H93.633a6.081,6.081,0,1,1,0-12.161H320.664a6.063,6.063,0,0,1,6.047,6.052" transform="translate(47.268 5.461)" fill="#fff"/><path d="M37.654,49.672a6.08,6.08,0,1,1-6.1-6.069,6.1,6.1,0,0,1,6.1,6.069" transform="translate(13.705 5.464)" fill="#fff"/><path d="M59.346,49.672A6.068,6.068,0,1,1,53.29,43.6a6.077,6.077,0,0,1,6.057,6.069" transform="translate(25.457 5.464)" fill="#fff"/><path d="M81.067,49.672A6.07,6.07,0,1,1,75,43.6a6.083,6.083,0,0,1,6.067,6.069" transform="translate(37.209 5.464)" fill="#fff"/><path d="M127.672,176.326a13.646,13.646,0,1,0,.006,0Zm24.264-9.926a18.72,18.72,0,1,0-10.275,24.4,18.732,18.732,0,0,0,10.275-24.4" transform="translate(62.617 65.618)" fill="#569af4"/><path d="M187.048,152.624l-53.878,9.831,6.285,15.4Z" transform="translate(71.973 64.46)" fill="#569af4"/><path d="M73.927,242.031,61.56,256.187l10.014,17.369H120.34a81.8,81.8,0,1,1,97.67,0h48.74l10.005-17.369-12.361-14.157a99.665,99.665,0,0,0,4.187-15.777l17.8-6.064V195.946l-17.8-6.067a101.746,101.746,0,0,0-4.187-15.774l12.361-14.145-12.113-20.978-18.477,3.608c-1.825-2.065-3.652-4.087-5.533-5.972-1.933-1.925-3.95-3.791-6.01-5.574l3.645-18.423L217.3,100.489,203.1,112.857a99.534,99.534,0,0,0-15.729-4.234l-6.061-17.755H157.009l-6.055,17.755a101.384,101.384,0,0,0-15.783,4.234l-14.135-12.368-20.987,12.132,3.663,18.423c-2.077,1.786-4.139,3.651-6.018,5.574-1.97,1.93-3.839,4-5.624,6.115l.046-.143L73.69,138.982,61.56,159.96,73.927,174.1a108.68,108.68,0,0,0-4.234,15.774L51.94,195.946v24.244l17.754,6.064a104.989,104.989,0,0,0,4.234,15.777" transform="translate(28.016 31.041)" fill="#51b0f8"/></g></g></svg>