<svg xmlns="http://www.w3.org/2000/svg" xmlns:xlink="http://www.w3.org/1999/xlink" width="512" height="512" viewBox="0 0 512 512"><defs><clipPath id="b"><rect width="512" height="512"/></clipPath></defs><g id="a" clip-path="url(#b)"><g transform="translate(79.353 95.93)"><path d="M113.957,52.687V33.659A12.285,12.285,0,0,0,101.679,21.38H23.425A12.28,12.28,0,0,0,11.149,33.659V83.988H334.4V64.962a12.28,12.28,0,0,0-12.274-12.274H113.957" transform="translate(3.415 0)" fill="#569af4"/><path d="M318.714,261.077a12.273,12.273,0,0,1-12.277,12.274H32.29a12.275,12.275,0,0,1-12.279-12.274V69.993A12.282,12.282,0,0,1,32.29,57.714H306.44a12.275,12.275,0,0,1,12.274,12.279V261.077" transform="translate(6.828 13.997)" fill="#fff"/><path d="M350.091,269.937a12.282,12.282,0,0,1-12.274,12.28H14.564a12.285,12.285,0,0,1-12.279-12.28V78.853A12.278,12.278,0,0,1,14.564,66.577h323.25a12.275,12.275,0,0,1,12.274,12.276V269.937" transform="translate(0 17.411)" fill="#51b0f8"/><path d="M20.011,142.606h90.533V131.149H20.011v11.457" transform="translate(6.828 42.286)" fill="#fff"/><path d="M20.011,126.063h90.533V114.606H20.011v11.457" transform="translate(6.828 35.913)" fill="#fff"/><path d="M20.011,109.522H65.279V98.063H20.011v11.459" transform="translate(6.828 29.54)" fill="#343c44"/></g></g></svg>