<svg xmlns="http://www.w3.org/2000/svg" xmlns:xlink="http://www.w3.org/1999/xlink" width="512" height="512" viewBox="0 0 512 512"><defs><clipPath id="a"><path d="M0,6.943V156.791a8.149,8.149,0,0,1,8.145-8.134H72.5a8.108,8.108,0,0,1,7.778,5.8l4.841,16.121H205.8l4.845-16.121a8.08,8.08,0,0,1,7.792-5.8H282.8a8.094,8.094,0,0,1,8.121,8.134V6.943H0" transform="translate(-0.003 -6.943)"/></clipPath><clipPath id="b"><path d="M187.748,33.524V6.943H99.782V56.626l-87.951-.018v226.9H275.695V33.524H187.748" transform="translate(-11.831 -6.943)"/></clipPath><clipPath id="d"><rect width="512" height="512"/></clipPath></defs><g id="c" clip-path="url(#d)"><g transform="translate(110.71 110.666)"><path d="M2.408,247.368c-.048-.047-.1-.094-.144-.143l.144.143m-.146-.143h0A7.978,7.978,0,0,1,0,241.594H0a7.99,7.99,0,0,0,2.265,5.631" transform="translate(0 33.755)" fill="#106e9d"/><g transform="translate(0.004 6.943)"><g transform="translate(0)"><g clip-path="url(#a)"><path d="M99.782,364.494l-87.952-.023V50.362l87.952.018V364.494" transform="translate(1.698 -0.697)" fill="#364a5e"/><path d="M83.279,258.978a4.2,4.2,0,0,1-4.174,4.193H28.821a4.2,4.2,0,0,1-4.174-4.193V71.9a4.185,4.185,0,0,1,4.174-4.183H79.083a4.2,4.2,0,0,1,4.195,4.19v187.07" transform="translate(3.542 1.8)" fill="#fff"/><path d="M75.032,123.825l-43.979.013v-2.929H75.02l.011,2.917" transform="translate(4.464 9.451)" fill="#e1effa"/><path d="M75.02,139.213H31.053v-2.927H75.032l-.011,2.927" transform="translate(4.464 11.663)" fill="#e1effa"/><path d="M75.032,111.532H31.053v-34.2H75.02l.011,34.2" transform="translate(4.464 3.183)" fill="#e1effa"/><path d="M88.721,321.049h87.967V6.943H88.721Z" transform="translate(12.759 -6.943)" fill="#51b0f8"/><path d="M160.183,215.555a4.232,4.232,0,0,1-4.214,4.2H105.726a4.218,4.218,0,0,1-4.183-4.2V28.489a4.206,4.206,0,0,1,4.183-4.2h50.243a4.221,4.221,0,0,1,4.214,4.2V215.555" transform="translate(14.604 -4.448)" fill="#fff"/><path d="M151.918,80.408H107.946V77.479h43.972v2.929" transform="translate(15.525 3.204)" fill="#e1effa"/><path d="M151.918,95.784H107.946V92.861h43.972v2.923" transform="translate(15.525 5.416)" fill="#e1effa"/><path d="M151.918,111.172H107.946v-2.947h43.972v2.947" transform="translate(15.525 7.627)" fill="#e1effa"/><path d="M151.918,126.531H107.946V123.6h43.972v2.927" transform="translate(15.525 9.839)" fill="#e1effa"/><path d="M151.918,141.9H107.946v-2.92h43.972v2.92" transform="translate(15.525 12.051)" fill="#e1effa"/><path d="M151.918,68.109H107.946V33.894h43.972V68.109" transform="translate(15.525 -3.066)" fill="#e1effa"/><path d="M165.625,344.278h87.946V30.181H165.625Z" transform="translate(23.822 -3.6)" fill="#569af4"/><path d="M237.064,238.772a4.2,4.2,0,0,1-4.187,4.2H182.62a4.206,4.206,0,0,1-4.186-4.2V51.7a4.2,4.2,0,0,1,4.186-4.181h50.257a4.192,4.192,0,0,1,4.187,4.181v187.07" transform="translate(25.665 -1.106)" fill="#fff"/><path d="M228.829,103.639H184.843v-2.928h43.986v2.928" transform="translate(26.586 6.546)" fill="#e1effa"/><path d="M228.829,119.021H184.843v-2.934h43.986v2.934" transform="translate(26.586 8.757)" fill="#e1effa"/><path d="M184.843,134.4h43.986v-2.944H184.843Z" transform="translate(26.586 10.968)" fill="#e1effa"/><path d="M228.829,149.768H184.843v-2.932h43.986v2.932" transform="translate(26.586 13.181)" fill="#e1effa"/><path d="M228.829,91.334H184.843v-34.2h43.986v34.2" transform="translate(26.586 0.277)" fill="#e1effa"/></g></g></g><g transform="translate(13.533 6.943)"><g clip-path="url(#b)"><path d="M11.831,130.85h.018v-.021h-.018Z" transform="translate(-11.831 10.878)" fill="#1f729a"/><path d="M275.695,262.129H11.831V131.361h.018v-.014H70.806a8.11,8.11,0,0,1,7.779,5.8l4.839,16.121H99.782v0h87.967v0h16.358l4.845-16.121a8.108,8.108,0,0,1,.994-2.149,7.821,7.821,0,0,1,1.924-2.046,8.128,8.128,0,0,1,1.541-.9,8.22,8.22,0,0,1,3.335-.709H275.7V262.129" transform="translate(-11.831 10.367)" fill="#004f7c"/><path d="M99.782,153.268H85.122V149.2h14.66v4.064M26.491,131.346H11.83v-4.065H26.49v4.065" transform="translate(-11.831 10.368)" fill="#2b3c50"/><path d="M83.279,153.268h-1.7l-4.84-16.121a8.112,8.112,0,0,0-7.779-5.8H24.647v-4.065H68.961a8.085,8.085,0,0,1,7.779,5.8L81.58,149.2h1.7v4.064" transform="translate(-9.987 10.368)" fill="#cdd3da"/><path d="M176.688,150.511H162.027v-4.064h14.661v4.064m-73.3,0H88.721v-4.064h14.666v4.064" transform="translate(-0.77 13.125)" fill="#ce7629"/><path d="M101.543,150.511h58.64v-4.064h-58.64Z" transform="translate(1.074 13.125)" fill="#cdd3da"/><path d="M180.278,153.268H165.622V149.2h14.656v4.064m73.293-21.922H238.909v-4.065h14.663v4.065" transform="translate(10.292 10.368)" fill="#9baf46"/><path d="M180.136,153.268h-1.7V149.2h1.7l4.85-16.121a8.062,8.062,0,0,1,2.913-4.2,8.168,8.168,0,0,1,4.876-1.6h44.29v4.065H192.778a8.221,8.221,0,0,0-3.335.707h-3.677V135h.214a8.069,8.069,0,0,0-.992,2.149l-4.851,16.117" transform="translate(12.135 10.368)" fill="#cdd3da"/><path d="M185.056,134.4h-.214v-2.944h3.677a8.041,8.041,0,0,0-1.541.9,7.885,7.885,0,0,0-1.923,2.044" transform="translate(13.057 10.968)" fill="#b5c6d6"/></g></g><path d="M288.56,133.215a8.155,8.155,0,0,0-5.76-2.38H218.445a8.141,8.141,0,0,0-4.876,1.607,8.036,8.036,0,0,0-2.916,4.193l-4.845,16.121H85.127l-4.84-16.121a8.11,8.11,0,0,0-7.779-5.8H8.148A8.149,8.149,0,0,0,0,138.969V257.546a8.145,8.145,0,0,0,8.145,8.136H282.8a8.092,8.092,0,0,0,8.122-8.136V138.969a8.142,8.142,0,0,0-2.361-5.754" transform="translate(0.001 17.822)" fill="#e1effa"/><path d="M192.678,202.119a5.118,5.118,0,0,1-5.112,5.1H81.4a5.118,5.118,0,0,1-5.108-5.1v-3.762a5.117,5.117,0,0,1,5.108-5.1H187.566a5.117,5.117,0,0,1,5.112,5.1v3.762" transform="translate(10.975 26.802)" fill="#364a5e"/></g></g></svg>