<svg xmlns="http://www.w3.org/2000/svg" xmlns:xlink="http://www.w3.org/1999/xlink" width="512" height="512" viewBox="0 0 512 512"><defs><clipPath id="b"><rect width="512" height="512"/></clipPath></defs><g id="a" clip-path="url(#b)"><g transform="translate(105.927 105.679)"><rect width="255.509" height="210.605" transform="translate(22.5 85.6)" fill="#4a5158"/><g transform="translate(0.818 3.527)"><path d="M299.692,77.857a7.766,7.766,0,0,1-7.741,7.744H8.564A7.766,7.766,0,0,1,.818,77.857V11.27A7.766,7.766,0,0,1,8.564,3.527H291.952a7.765,7.765,0,0,1,7.741,7.743Z" transform="translate(-0.818 -3.527)" fill="#fff"/><g transform="translate(21.682 21.681)"><rect width="7.741" height="7.741" fill="#cccbca"/><rect width="7.742" height="7.741" transform="translate(15.484)" fill="#cccbca"/><rect width="7.746" height="7.741" transform="translate(30.967)" fill="#cccbca"/><rect width="7.742" height="7.741" transform="translate(46.455)" fill="#cccbca"/><rect width="7.742" height="7.741" transform="translate(61.942)" fill="#cccbca"/><rect width="7.742" height="7.741" transform="translate(77.426)" fill="#cccbca"/><rect width="7.742" height="7.741" transform="translate(92.913)" fill="#cccbca"/><rect width="7.742" height="7.741" transform="translate(108.401)" fill="#cccbca"/><g transform="translate(0 15.484)"><rect width="7.741" height="7.742" fill="#cccbca"/><rect width="7.742" height="7.742" transform="translate(15.484)" fill="#cccbca"/><rect width="7.746" height="7.742" transform="translate(30.967)" fill="#cccbca"/><rect width="7.742" height="7.742" transform="translate(46.455)" fill="#cccbca"/><rect width="7.742" height="7.742" transform="translate(61.942)" fill="#cccbca"/><rect width="7.742" height="7.742" transform="translate(77.426)" fill="#cccbca"/><rect width="7.742" height="7.742" transform="translate(92.913)" fill="#cccbca"/><rect width="7.742" height="7.742" transform="translate(108.401)" fill="#cccbca"/></g><g transform="translate(0 30.97)"><rect width="7.741" height="7.743" fill="#cccbca"/><rect width="7.742" height="7.743" transform="translate(15.484)" fill="#cccbca"/><rect width="7.746" height="7.743" transform="translate(30.967)" fill="#cccbca"/><rect width="7.742" height="7.743" transform="translate(46.455)" fill="#cccbca"/><rect width="7.742" height="7.743" transform="translate(61.942)" fill="#cccbca"/><rect width="7.742" height="7.743" transform="translate(77.426)" fill="#cccbca"/><rect width="7.742" height="7.743" transform="translate(92.913)" fill="#cccbca"/><rect width="7.742" height="7.743" transform="translate(108.401)" fill="#cccbca"/></g></g><g transform="translate(199.765 33.292)"><rect width="15.483" height="15.488" transform="translate(61.944)" fill="#569af4"/><rect width="15.484" height="15.488" transform="translate(30.971)" fill="#4a5158"/><rect width="15.489" height="15.488" fill="#4a5158"/></g></g><g transform="translate(0.818 101.085)"><path d="M299.692,160.886a7.769,7.769,0,0,1-7.741,7.747H8.564a7.769,7.769,0,0,1-7.746-7.747V94.3a7.767,7.767,0,0,1,7.746-7.744H291.952a7.766,7.766,0,0,1,7.741,7.744Z" transform="translate(-0.818 -86.556)" fill="#fff"/><g transform="translate(21.682 21.681)"><rect width="7.741" height="7.743" fill="#cccbca"/><rect width="7.742" height="7.743" transform="translate(15.484)" fill="#cccbca"/><rect width="7.746" height="7.743" transform="translate(30.967)" fill="#cccbca"/><rect width="7.742" height="7.743" transform="translate(46.455)" fill="#cccbca"/><rect width="7.742" height="7.743" transform="translate(61.942)" fill="#cccbca"/><rect width="7.742" height="7.743" transform="translate(77.426)" fill="#cccbca"/><rect width="7.742" height="7.743" transform="translate(92.913)" fill="#cccbca"/><rect width="7.742" height="7.743" transform="translate(108.401)" fill="#cccbca"/><g transform="translate(0 15.486)"><rect width="7.741" height="7.743" fill="#cccbca"/><rect width="7.742" height="7.743" transform="translate(15.484)" fill="#cccbca"/><rect width="7.746" height="7.743" transform="translate(30.967)" fill="#cccbca"/><rect width="7.742" height="7.743" transform="translate(46.455)" fill="#cccbca"/><rect width="7.742" height="7.743" transform="translate(61.942)" fill="#cccbca"/><rect width="7.742" height="7.743" transform="translate(77.426)" fill="#cccbca"/><rect width="7.742" height="7.743" transform="translate(92.913)" fill="#cccbca"/><rect width="7.742" height="7.743" transform="translate(108.401)" fill="#cccbca"/></g><g transform="translate(0 30.971)"><rect width="7.741" height="7.746" fill="#cccbca"/><rect width="7.742" height="7.746" transform="translate(15.484)" fill="#cccbca"/><rect width="7.746" height="7.746" transform="translate(30.967)" fill="#cccbca"/><rect width="7.742" height="7.746" transform="translate(46.455)" fill="#cccbca"/><rect width="7.742" height="7.746" transform="translate(61.942)" fill="#cccbca"/><rect width="7.742" height="7.746" transform="translate(77.426)" fill="#cccbca"/><rect width="7.742" height="7.746" transform="translate(92.913)" fill="#cccbca"/><rect width="7.742" height="7.746" transform="translate(108.401)" fill="#cccbca"/></g></g><g transform="translate(199.765 33.296)"><rect width="15.483" height="15.486" transform="translate(61.944)" fill="#4a5158"/><rect width="15.484" height="15.486" transform="translate(30.971)" fill="#4a5158"/><rect width="15.489" height="15.486" fill="#569af4"/></g></g><g transform="translate(0.818 198.645)"><path d="M299.692,243.919a7.762,7.762,0,0,1-7.741,7.741H8.564a7.762,7.762,0,0,1-7.746-7.741V177.333a7.768,7.768,0,0,1,7.746-7.746H291.952a7.768,7.768,0,0,1,7.741,7.746Z" transform="translate(-0.818 -169.587)" fill="#fff"/><g transform="translate(21.682 21.682)"><rect width="7.741" height="7.746" fill="#cccbca"/><rect width="7.742" height="7.746" transform="translate(15.484)" fill="#cccbca"/><rect width="7.746" height="7.746" transform="translate(30.967)" fill="#cccbca"/><rect width="7.742" height="7.746" transform="translate(46.455)" fill="#cccbca"/><rect width="7.742" height="7.746" transform="translate(61.942)" fill="#cccbca"/><rect width="7.742" height="7.746" transform="translate(77.426)" fill="#cccbca"/><rect width="7.742" height="7.746" transform="translate(92.913)" fill="#cccbca"/><rect width="7.742" height="7.746" transform="translate(108.401)" fill="#cccbca"/><g transform="translate(0 15.484)"><rect width="7.741" height="7.746" fill="#cccbca"/><rect width="7.742" height="7.746" transform="translate(15.484)" fill="#cccbca"/><rect width="7.746" height="7.746" transform="translate(30.967)" fill="#cccbca"/><rect width="7.742" height="7.746" transform="translate(46.455)" fill="#cccbca"/><rect width="7.742" height="7.746" transform="translate(61.942)" fill="#cccbca"/><rect width="7.742" height="7.746" transform="translate(77.426)" fill="#cccbca"/><rect width="7.742" height="7.746" transform="translate(92.913)" fill="#cccbca"/><rect width="7.742" height="7.746" transform="translate(108.401)" fill="#cccbca"/></g><g transform="translate(0 30.969)"><rect width="7.741" height="7.742" fill="#cccbca"/><rect width="7.742" height="7.742" transform="translate(15.484)" fill="#cccbca"/><rect width="7.746" height="7.742" transform="translate(30.967)" fill="#cccbca"/><rect width="7.742" height="7.742" transform="translate(46.455)" fill="#cccbca"/><rect width="7.742" height="7.742" transform="translate(61.942)" fill="#cccbca"/><rect width="7.742" height="7.742" transform="translate(77.426)" fill="#cccbca"/><rect width="7.742" height="7.742" transform="translate(92.913)" fill="#cccbca"/><rect width="7.742" height="7.742" transform="translate(108.401)" fill="#cccbca"/></g></g><g transform="translate(199.765 33.294)"><rect width="15.483" height="15.484" transform="translate(61.944)" fill="#4a5158"/><rect width="15.484" height="15.484" transform="translate(30.971)" fill="#569af4"/><rect width="15.489" height="15.484" fill="#4a5158"/></g></g></g></g></svg>