<svg xmlns="http://www.w3.org/2000/svg" xmlns:xlink="http://www.w3.org/1999/xlink" width="512" height="512" viewBox="0 0 512 512"><defs><clipPath id="b"><rect width="512" height="512"/></clipPath></defs><g id="a" clip-path="url(#b)"><g transform="translate(96.935 98.506)"><path d="M1,129.816v0m0-.313v0m0-.249v0m0-.243v-.164c0,.06,0,.1,0,.164m0-.24c0-.064,0-.135,0-.2,0,.067,0,.127,0,.2m0-.24c0-.077,0-.161,0-.235,0,.08,0,.156,0,.235m0-.309c0-.056,0-.107,0-.164,0,.052,0,.113,0,.164m0-.255c0-.051,0-.1,0-.151,0,.047,0,.1,0,.151m0-.242c0-.051,0-.1,0-.154,0,.049,0,.106,0,.154m0-.24c0-.056,0-.112,0-.171,0,.059,0,.115,0,.171m0-.237,0-.234c0,.077,0,.159,0,.234m.006-.309c0-.052,0-.107,0-.162,0,.055,0,.11,0,.162m0-.26c0-.046,0-.087,0-.137,0,.05,0,.091,0,.137m0-.243c0-.041,0-.091,0-.13,0,.041,0,.086,0,.13m.006-.235c0-.05,0-.1,0-.149,0,.055,0,.095,0,.149m0-.234c0-.076,0-.161,0-.237,0,.081,0,.156,0,.237m.006-.253c0-.071,0-.144,0-.213,0,.067,0,.143,0,.213m.007-.305c0-.05,0-.1,0-.148,0,.049,0,.1,0,.148m.007-.249c0-.044,0-.086,0-.131,0,.044,0,.09,0,.131m.006-.24c0-.045,0-.082,0-.13,0,.044,0,.087,0,.13m.007-.239c0-.039,0-.081,0-.121,0,.042,0,.081,0,.121m.011-.324c0-.044,0-.083,0-.127,0,.041,0,.087,0,.127m.009-.247c0-.036,0-.078,0-.115,0,.036,0,.08,0,.115m.009-.237c0-.041,0-.07,0-.111,0,.036,0,.072,0,.111m.009-.235c0-.034,0-.07,0-.106,0,.031,0,.073,0,.106m.01-.238c0-.031,0-.06,0-.09,0,.025,0,.062,0,.09m.024-.592c0-.026,0-.056,0-.082,0,.026,0,.056,0,.082m.01-.229c0-.025,0-.052,0-.078,0,.026,0,.054,0,.078m.011-.229c0-.025,0-.052,0-.08,0,.027,0,.055,0,.08m.01-.229c0-.022,0-.047,0-.07,0,.027,0,.044,0,.07m.031-.6c0-.024,0-.036,0-.06,0,.016,0,.042,0,.06m.011-.223c0-.024,0-.041,0-.061,0,.017,0,.045,0,.061m.012-.223c0-.019,0-.047,0-.064,0,.021,0,.04,0,.064m.012-.232c0-.014,0-.031,0-.041,0,.015,0,.026,0,.041m.049-.851v-.014a.026.026,0,0,1,0,.014m.014-.207c0-.01,0-.019,0-.029,0,.011,0,.016,0,.029" transform="translate(0 27.739)" fill="#403027"/><path d="M63.6,127.392h0V6.771H194.1l15.189,15.187,7.265,7.286-7.3-7.3L194.077,6.771H63.6V127.392" transform="translate(15.369 0)" fill="#ed7526"/><path d="M63.6,6.771V127.4H224.434V37.124L194.083,6.771H63.6" transform="translate(15.369 0)" fill="#51b0f8"/><path d="M194.281,32.693l-7.8-7.8-.076-.08,7.875,7.88" transform="translate(45.521 4.43)" fill="#5a7333"/><path d="M187.922,26.332l-7.377-7.377h0l7.3,7.3.076.08" transform="translate(44.082 2.991)" fill="#545e29"/><path d="M198.712,64.481l-30.351-30.35L183.54,18.954l7.373,7.377,7.8,7.8v30.35" transform="translate(41.09 2.991)" fill="#569af4"/><path d="M198.712,37.123H168.361V6.771Z" transform="translate(41.09 0)" fill="#fff"/><path d="M139.542,36.643H81.815V32.021h57.727v4.622" transform="translate(19.842 6.199)" fill="#fff"/><path d="M197.264,50.855H81.815V46.237H197.263v4.618" transform="translate(19.842 9.69)" fill="#fff"/><path d="M197.264,65.066H81.815V60.449H197.263v4.617" transform="translate(19.842 13.179)" fill="#fff"/><path d="M197.264,79.277H81.815V74.66H197.263v4.617" transform="translate(19.842 16.668)" fill="#fff"/><path d="M176.3,260.786H95.882v-60.32H176.3v60.32" transform="translate(23.295 47.555)" fill="#51b0f8"/><path d="M82.681,260.786H2.264v-60.32H82.681v60.32" transform="translate(0.311 47.555)" fill="#51b0f8"/><path d="M269.918,260.786H189.5v-60.32h80.418v60.32" transform="translate(46.28 47.555)" fill="#51b0f8"/><path d="M132.6,224.245h-7.406V103.617H132.6V224.245" transform="translate(30.492 23.777)" fill="#7e7e7e"/><path d="M38.979,213.147h-7.4V148.822h7.4v64.325" transform="translate(7.507 34.876)" fill="#7e7e7e"/><path d="M226.223,213.147h-7.412V148.822h7.412v64.325" transform="translate(53.476 34.876)" fill="#7e7e7e"/><path d="M272.568,149.07v7.408H31.316V149.07H272.568" transform="translate(7.443 34.937)" fill="#7e7e7e"/><path d="M137.8,161.668h-16.09V145.583H137.8v16.085" transform="translate(29.636 34.081)" fill="#9f9f9f"/><path d="M44.168,161.668H28.09V145.583H44.167v16.085" transform="translate(6.651 34.081)" fill="#9f9f9f"/><path d="M231.419,161.668h-16.1V145.583h16.1v16.085" transform="translate(52.62 34.081)" fill="#9f9f9f"/></g></g></svg>