<svg xmlns="http://www.w3.org/2000/svg" xmlns:xlink="http://www.w3.org/1999/xlink" width="512" height="512" viewBox="0 0 512 512"><defs><clipPath id="b"><rect width="512" height="512"/></clipPath></defs><g id="a" clip-path="url(#b)"><g transform="translate(116.997 116.478)"><rect width="26.005" height="8.667" transform="translate(38.98 266.875)" fill="#293b4d"/><rect width="26.01" height="8.667" transform="translate(212.356 266.875)" fill="#293b4d"/><rect width="240.703" height="262.375" transform="translate(18.326 4.5)" fill="#364a5e"/><rect width="199.386" height="225.388" transform="translate(38.98 22.997)" fill="#293b4d"/><rect width="192.454" height="218.95" transform="translate(42.448 26.216)" fill="#5e6e7f"/><g transform="translate(30.312 58.294)"><rect width="20.804" height="20.816" fill="#293b4d"/><rect width="21.958" height="9.255" transform="translate(10.404 5.781)" fill="#fff"/><g transform="translate(0 133.984)"><rect width="20.804" height="20.795" fill="#293b4d"/><rect width="21.958" height="9.248" transform="translate(10.404 5.773)" fill="#fff"/></g></g><g transform="translate(175.371 116.232)"><path d="M200.357,125.777a19.459,19.459,0,1,1-19.467-19.457A19.463,19.463,0,0,1,200.357,125.777Z" transform="translate(-161.439 -106.32)" fill="#fff"/><path d="M174.1,122.548v53.958a5.556,5.556,0,1,0,11.113,0V122.548H174.1Z" transform="translate(-160.206 -104.74)" fill="#569af4"/><circle cx="11.027" cy="11.027" r="11.027" transform="translate(8.43 8.43)" fill="#51b0f8"/></g><g transform="translate(73.472 98.824)"><path d="M142.313,127.321A36.866,36.866,0,1,1,105.45,90.456,36.868,36.868,0,0,1,142.313,127.321Z" transform="translate(-68.58 -90.456)" fill="#fff"/><circle cx="26.335" cy="26.335" r="26.335" transform="translate(10.535 10.53)" fill="#293b4d"/><path d="M119.378,125.452a15.8,15.8,0,1,1-15.8-15.8A15.795,15.795,0,0,1,119.378,125.452Z" transform="translate(-66.711 -88.587)" fill="#364a5e"/><path d="M87.782,125.452a15.8,15.8,0,0,0,15.8,15.8v-31.6A15.8,15.8,0,0,0,87.782,125.452Z" transform="translate(-66.711 -88.587)" fill="#5e6e7f"/><g transform="translate(11.392 11.388)"><rect width="1.051" height="5.265" transform="translate(24.955)" fill="#fff"/><rect width="1.057" height="5.267" transform="translate(7.092 7.835) rotate(-45)" fill="#fff"/><rect width="5.265" height="1.056" transform="translate(0 24.947)" fill="#fff"/><rect width="1.059" height="5.271" transform="translate(7.831 43.866) rotate(-134.814)" fill="#fff"/><rect width="1.051" height="5.26" transform="translate(24.955 45.692)" fill="#fff"/><rect width="1.057" height="5.268" transform="translate(43.874 43.097) rotate(134.797)" fill="#fff"/><rect width="5.265" height="1.056" transform="translate(45.691 24.947)" fill="#fff"/><rect width="1.056" height="5.266" transform="translate(43.125 7.104) rotate(45.02)" fill="#fff"/></g></g></g></g></svg>