<svg xmlns="http://www.w3.org/2000/svg" xmlns:xlink="http://www.w3.org/1999/xlink" width="512" height="512" viewBox="0 0 512 512"><defs><clipPath id="b"><rect width="512" height="512"/></clipPath></defs><g id="a" clip-path="url(#b)"><g transform="translate(102.853 100.041)"><path d="M198.34,100.379a29.865,29.865,0,1,1,29.867-29.864A29.861,29.861,0,0,1,198.34,100.379Zm70.244-22.608V63.248l-10.666-3.64v.016a60.473,60.473,0,0,0-2.521-9.467l7.4-8.472L255.537,29.1l-11.043,2.186.038.062q-1.624-1.9-3.371-3.657c-1.164-1.168-2.389-2.291-3.648-3.365l.061.036,2.176-11.051L227.167,6.04l-8.483,7.418a60.229,60.229,0,0,0-9.45-2.534h.009L205.614.269H191.076l-3.635,10.655h.01a60.64,60.64,0,0,0-9.468,2.534L169.51,6.04l-12.582,7.267,2.186,11.051.054-.036q-1.9,1.611-3.648,3.365t-3.371,3.657l.044-.062L141.145,29.1l-7.267,12.585,7.416,8.472a60.257,60.257,0,0,0-2.535,9.462v-.011L128.1,63.245V77.778l10.659,3.635v-.006a60.305,60.305,0,0,0,2.535,9.453l-7.416,8.484,7.267,12.586,11.047-2.181-.044-.061q1.619,1.889,3.371,3.651c1.169,1.164,2.384,2.288,3.641,3.356l-2.232,11.014,12.592,7.272,8.463-7.409a60.958,60.958,0,0,0,9.463,2.527h0l3.635,10.653h14.537l3.634-10.653h-.013a60.787,60.787,0,0,0,9.463-2.532l8.472,7.413,12.588-7.272-2.182-11.045-.062.03c1.259-1.068,2.485-2.192,3.647-3.356s2.293-2.392,3.366-3.651l-.028.056,11.041,2.181,7.269-12.585L255.4,90.86a60.006,60.006,0,0,0,2.518-9.454v.006l10.664-3.641" transform="translate(25.118)" fill="#7d7d7d"/><path d="M192.432,93.077A28.471,28.471,0,1,1,220.9,64.607,28.468,28.468,0,0,1,192.432,93.077Zm0-65.514a37.045,37.045,0,1,0,37.05,37.045,37.044,37.044,0,0,0-37.05-37.045" transform="translate(31.026 5.909)" fill="#51b0f8"/><path d="M113.19,220.308a29.373,29.373,0,1,1,29.373-29.376A29.383,29.383,0,0,1,113.19,220.308Zm101.062-18.92V180.48l-15.345-5.23a88.061,88.061,0,0,0-3.608-13.609l10.661-12.2L195.5,131.36l-15.933,3.112c-1.573-1.788-3.158-3.529-4.772-5.149-1.657-1.658-3.4-3.271-5.186-4.809l3.156-15.889-18.09-10.456-12.242,10.658a85.878,85.878,0,0,0-13.564-3.651l-5.23-15.3H102.691l-5.226,15.3a87.741,87.741,0,0,0-13.608,3.651l-12.2-10.658-18.09,10.456,3.156,15.889c-1.788,1.535-3.573,3.148-5.187,4.809-1.7,1.663-3.316,3.444-4.856,5.27l.044-.122-15.89-3.112L20.381,149.445l10.664,12.2a92.989,92.989,0,0,0-3.65,13.607l-15.309,5.227v20.909l15.309,5.23a90.888,90.888,0,0,0,3.65,13.609l-10.664,12.2,10.456,18.137L46.728,247.4c1.533,1.777,3.152,3.519,4.813,5.181s3.445,3.274,5.226,4.811l-3.195,15.852L71.7,283.741l12.155-10.659a89.407,89.407,0,0,0,13.608,3.6l5.226,15.355h20.951l5.23-15.355a82.953,82.953,0,0,0,13.608-3.652l12.2,10.708,18.09-10.495-3.156-15.891c1.782-1.534,3.528-3.156,5.186-4.772,1.614-1.662,3.238-3.4,4.772-5.181l15.933,3.156,10.457-18.137-10.661-12.2a86.557,86.557,0,0,0,3.608-13.609l15.344-5.229" transform="translate(0 19.4)" fill="#fff"/><path d="M103.147,204.509a23.619,23.619,0,1,1,23.612-23.616A23.623,23.623,0,0,1,103.147,204.509Zm0-68.247a44.651,44.651,0,1,0,44.635,44.631,44.64,44.64,0,0,0-44.635-44.631" transform="translate(10.043 29.444)" fill="#51b0f8"/><path d="M105.547,216.754a33.47,33.47,0,1,1,33.465-33.47A33.477,33.477,0,0,1,105.547,216.754Zm0-91.569a58.125,58.125,0,1,0,58.1,58.1,58.111,58.111,0,0,0-58.1-58.1" transform="translate(7.645 27.046)" fill="#569af4"/></g></g></svg>