<svg xmlns="http://www.w3.org/2000/svg" xmlns:xlink="http://www.w3.org/1999/xlink" width="512" height="512" viewBox="0 0 512 512"><defs><clipPath id="b"><rect width="512" height="512"/></clipPath></defs><g id="a" clip-path="url(#b)"><g transform="translate(87.002 90.756)"><g transform="translate(0.418 11.044)"><g transform="translate(96.432 253.709)"><path d="M185.964,251.146H92.554l8.486-47.616h76.416Z" transform="translate(-67.545 -203.53)" fill="#e6e5e5"/><path d="M183.916,251.146l-8.508-47.616H98.992L160.1,251.146Z" transform="translate(-65.497 -203.53)" fill="#d9d8d7"/><path d="M217.007,246.642H73.58v-2.606a4.383,4.383,0,0,1,4.38-4.381H212.616a4.348,4.348,0,0,1,3.1,1.279,4.4,4.4,0,0,1,1.29,3.1v2.606Z" transform="translate(-73.58 -192.04)" fill="#fff"/></g><path d="M336.742,180.169v22.618a8.212,8.212,0,0,1-8.2,8.173H8.6a8.216,8.216,0,0,1-8.183-8.173V180.169Z" transform="translate(-0.418 42.749)" fill="#fff"/><path d="M336.741,233.962V19.233a8.229,8.229,0,0,0-8.2-8.189H8.586A8.215,8.215,0,0,0,.423,19.233V233.962Z" transform="translate(-0.416 -11.044)" fill="#33383d"/></g><rect width="302.309" height="188.926" transform="translate(17.409 28.037)" fill="#fff"/><g transform="translate(24.711 35.341)"><rect width="232.686" height="174.323" fill="#f3f3f3"/><rect width="287.706" height="12.174" fill="#d9d8d7"/><rect width="29.84" height="152.835" transform="translate(0 21.487)" fill="#d9d8d7"/><rect width="20.1" height="140.667" transform="translate(4.872 26.355)" fill="#fff"/><rect width="29.84" height="9.313" transform="translate(0 12.174)" fill="#33383d"/><rect width="178.118" height="9.313" transform="translate(54.568 12.174)" fill="#cccbca"/><rect width="55.023" height="65.674" transform="translate(232.686 21.487)" fill="#d9d8d7"/><rect width="45.281" height="34.079" transform="translate(237.554 26.355)" fill="#fff"/><rect width="55.023" height="77.849" transform="translate(232.686 96.474)" fill="#d9d8d7"/><rect width="45.281" height="56.047" transform="translate(237.554 101.35)" fill="#fff"/><rect width="55.023" height="9.313" transform="translate(232.686 12.174)" fill="#33383d"/><rect width="55.023" height="9.312" transform="translate(232.686 87.161)" fill="#33383d"/><g transform="translate(241.736 105.524)"><rect width="36.918" height="2.942" fill="#d9d8d7"/><rect width="36.918" height="2.935" transform="translate(0 6.395)" fill="#d9d8d7"/></g><g transform="translate(241.736 30.532)"><rect width="36.918" height="2.949" fill="#d9d8d7"/><rect width="36.918" height="2.943" transform="translate(0 6.393)" fill="#d9d8d7"/><rect width="36.918" height="2.941" transform="translate(0 12.785)" fill="#d9d8d7"/></g><rect width="11.356" height="152.835" transform="translate(221.33 21.487)" fill="#cccbca"/><rect width="176.882" height="138.236" transform="translate(37.143 28.787)" fill="#fff"/><rect width="8.73" height="8.722" transform="translate(10.558 32.049)" fill="#d9d8d7"/><rect width="8.73" height="8.722" transform="translate(10.558 46.455)" fill="#d9d8d7"/><rect width="8.73" height="8.73" transform="translate(10.558 60.863)" fill="#d9d8d7"/><rect width="166.296" height="12.976" transform="translate(42.224 33.479)" fill="#569af4"/><rect width="166.296" height="84.58" transform="translate(42.224 50.817)" fill="#efeff0"/><rect width="48.515" height="48.514" transform="translate(101.117 68.85)" fill="#b3b5b8"/><rect width="39.553" height="7.721" transform="translate(105.806 105.664)" fill="#8c8e90"/><rect width="39.553" height="7.721" transform="translate(105.806 73.016)" fill="#ededee"/><rect width="39.553" height="7.723" transform="translate(105.806 83.299)" fill="#ededee"/><g transform="translate(151.373 145.178)"><rect width="13.807" height="13.811" transform="translate(40.817)" fill="#569af4"/><rect width="13.811" height="13.811" transform="translate(20.405)" fill="#33383d"/><rect width="13.799" height="13.811" fill="#51b0f8"/></g></g></g></g></svg>