<svg xmlns="http://www.w3.org/2000/svg" xmlns:xlink="http://www.w3.org/1999/xlink" width="512" height="512" viewBox="0 0 512 512"><defs><clipPath id="b"><rect width="512" height="512"/></clipPath></defs><g id="a" clip-path="url(#b)"><g transform="translate(58.821 73.424)"><g transform="translate(120.837 69.028)"><path d="M165.479,249.541l-54.925-.025-.017-59.276h54.942Z" transform="translate(-61.173 19.203)" fill="#4b5155"/><path d="M158.156,168.17a13.784,13.784,0,1,1-5.5,0l-.012-113.519L78.563,214.625h.073a49.351,49.351,0,0,1,49.292,49.238v.161h54.942l0-.128a49.374,49.374,0,0,1,49.333-49.27h.056L158.156,54.58Z" transform="translate(-78.563 -54.58)" fill="#fff"/><path d="M182.384,199.446a9.266,9.266,0,0,1-9.24,9.235h-61.46a9.259,9.259,0,0,1-9.231-9.235h0a9.29,9.29,0,0,1,9.231-9.231l61.479.037a9.267,9.267,0,0,1,9.222,9.194Z" transform="translate(-65.57 19.19)" fill="#33383d"/></g><g transform="translate(0.836 38.289)"><path d="M14.541,211.179l-6.873-.508.256-3.44C15.083,110.467,96.8,34.67,193.961,34.67S372.843,110.467,380,207.231l.252,3.44-6.869.508-.256-3.435c-6.89-93.189-85.591-166.187-179.168-166.187s-172.27,73-179.168,166.187Z" transform="translate(2.88 -34.67)" fill="#949494"/><path d="M.836,146.618v27.467H28.3V146.618ZM21.413,167.2H7.726V153.5H21.413Z" transform="translate(-0.836 26.217)" fill="#569af4"/><path d="M238.044,146.618v27.467H265.5V146.618ZM258.613,167.2H244.931V153.5h13.682Z" transform="translate(128.178 26.217)" fill="#569af4"/></g><g transform="translate(3.13 28.016)"><rect width="366.214" height="3.935" transform="translate(11.44 11.764)" fill="#949494"/><path d="M25.205,40.943A11.442,11.442,0,1,1,13.762,29.5,11.437,11.437,0,0,1,25.205,40.943Z" transform="translate(-2.322 -27.211)" fill="#569af4"/><path d="M262.419,40.943A11.449,11.449,0,1,1,250.967,29.5,11.445,11.445,0,0,1,262.419,40.943Z" transform="translate(126.687 -27.211)" fill="#569af4"/><rect width="27.472" height="27.469" transform="translate(180.813)" fill="#51b0f8"/></g></g></g></svg>