<svg xmlns="http://www.w3.org/2000/svg" xmlns:xlink="http://www.w3.org/1999/xlink" width="512" height="512" viewBox="0 0 512 512"><defs><filter id="a" x="92" y="326" width="123" height="112.525" filterUnits="userSpaceOnUse"><feOffset dy="3" input="SourceAlpha"/><feGaussianBlur stdDeviation="3" result="b"/><feFlood flood-opacity="0.161"/><feComposite operator="in" in2="b"/><feComposite in="SourceGraphic"/></filter><filter id="c" x="297" y="326" width="123" height="112.525" filterUnits="userSpaceOnUse"><feOffset dy="3" input="SourceAlpha"/><feGaussianBlur stdDeviation="3" result="d"/><feFlood flood-opacity="0.161"/><feComposite operator="in" in2="d"/><feComposite in="SourceGraphic"/></filter><filter id="e" x="197" y="81.868" width="118" height="310.132" filterUnits="userSpaceOnUse"><feOffset dy="3" input="SourceAlpha"/><feGaussianBlur stdDeviation="3" result="f"/><feFlood flood-opacity="0.161"/><feComposite operator="in" in2="f"/><feComposite in="SourceGraphic"/></filter><filter id="g" x="402" y="82" width="119" height="310" filterUnits="userSpaceOnUse"><feOffset dy="3" input="SourceAlpha"/><feGaussianBlur stdDeviation="3" result="h"/><feFlood flood-opacity="0.161"/><feComposite operator="in" in2="h"/><feComposite in="SourceGraphic"/></filter><filter id="i" x="7.793" y="81.793" width="99.414" height="99.414" filterUnits="userSpaceOnUse"><feOffset dx="-3" dy="-3" input="SourceAlpha"/><feGaussianBlur stdDeviation="3" result="j"/><feFlood flood-opacity="0.839"/><feComposite operator="in" in2="j"/><feComposite in="SourceGraphic"/></filter><filter id="k" x="-9" y="82" width="119" height="310" filterUnits="userSpaceOnUse"><feOffset dy="3" input="SourceAlpha"/><feGaussianBlur stdDeviation="3" result="l"/><feFlood flood-opacity="0.161"/><feComposite operator="in" in2="l"/><feComposite in="SourceGraphic"/></filter><filter id="m" x="196.5" y="276" width="68.5" height="116.5" filterUnits="userSpaceOnUse"><feOffset dy="3" input="SourceAlpha"/><feGaussianBlur stdDeviation="3" result="n"/><feFlood flood-opacity="0.161"/><feComposite operator="in" in2="n"/><feComposite in="SourceGraphic"/></filter><linearGradient id="o" x1="0.5" y1="0.287" x2="0.5" y2="1" gradientUnits="objectBoundingBox"><stop offset="0" stop-opacity="0"/><stop offset="1" stop-opacity="0.129"/></linearGradient><clipPath id="q"><rect width="512" height="512"/></clipPath></defs><g id="p" clip-path="url(#q)"><g transform="matrix(1, 0, 0, 1, 0, 0)" filter="url(#a)"><path d="M0,0H105V48L62.676,94.525H47.891L0,48Z" transform="translate(101 332)" fill="#8dc63f"/></g><g transform="matrix(1, 0, 0, 1, 0, 0)" filter="url(#c)"><path d="M0,0H105V48L57.676,94.525H47L0,48Z" transform="translate(306 332)" fill="#7fb539"/></g><g transform="matrix(1, 0, 0, 1, 0, 0)" filter="url(#e)"><path d="M0-.132,100,97V292L0,194Z" transform="translate(206 88)" fill="#7fb539"/></g><g transform="matrix(1, 0, 0, 1, 0, 0)" filter="url(#g)"><path d="M0,0,101,100.059v91.718L0,292Z" transform="translate(411 88)" fill="#7fb539"/></g><path d="M61.277,1.355,122.3,62.38H.253Z" transform="translate(58.628 43.712) rotate(45)" fill="#7fb539"/><g transform="matrix(1, 0, 0, 1, 0, 0)" filter="url(#i)"><line x2="80" y2="80" transform="translate(20.5 94.5)" fill="none" stroke="#72aa2a" stroke-linecap="round" stroke-width="1"/></g><path d="M.466,62.166,122.3,62.38-10.14,72.773Z" transform="translate(58.628 43.712) rotate(45)" fill="#74ad2b"/><g transform="matrix(1, 0, 0, 1, 0, 0)" filter="url(#k)"><path d="M0,0,101,86V292L0,196.4Z" transform="translate(0 88)" fill="#8dc63f"/></g><g transform="matrix(1, 0, 0, 1, 0, 0)" filter="url(#m)"><path d="M49.5.5,99,51,.5,50.5Z" transform="translate(256.5 281.5) rotate(90)" fill="#8dc63f"/></g><path d="M-1.335,4.621l221.7-2.5-7.773,8.537L6.47,12.426Z" transform="translate(210.212 268.639) rotate(45)" fill="url(#o)"/></g></svg>