<?xml version="1.0" encoding="utf-8"?>
<!-- Generator: Adobe Illustrator 15.1.0, SVG Export Plug-In . SVG Version: 6.00 Build 0)  -->
<!DOCTYPE svg PUBLIC "-//W3C//DTD SVG 1.1//EN" "http://www.w3.org/Graphics/SVG/1.1/DTD/svg11.dtd">
<svg version="1.1" id="Layer_1" xmlns="http://www.w3.org/2000/svg" xmlns:xlink="http://www.w3.org/1999/xlink" x="0px" y="0px"
	 width="256px" height="256px" viewBox="0 0 256 256" enable-background="new 0 0 256 256" xml:space="preserve">
<g>
	<path fill="#CCCBCA" d="M235.257,3.5c-9.521,0-17.247,7.719-17.247,17.246h34.493C252.503,11.218,244.78,3.5,235.257,3.5z"/>
	<path fill="#F3F3F3" d="M124.221,3.5c-9.525,0-17.247,7.719-17.247,17.246v139.818h93.79c9.525,0,17.246-7.718,17.246-17.243
		V20.746c0-9.527,7.726-17.246,17.247-17.246H124.221z"/>
	<path fill="#FFFFFF" d="M166.272,95.438c-9.522,0-17.246,7.722-17.246,17.246v122.568c0,9.528-7.724,17.246-17.248,17.246h-93.79
		V112.683c0-9.524,7.721-17.246,17.245-17.246h111.039V95.438z"/>
	<path fill="#CCCBCA" d="M183.516,143.32v-30.636c0-9.524-7.718-17.246-17.243-17.246c-9.522,0-17.246,7.722-17.246,17.246v47.879
		h51.737C191.242,160.563,183.516,152.846,183.516,143.32z"/>
	<path fill="#CCCBCA" d="M37.988,235.255V252.5H20.744C30.269,252.5,37.988,244.784,37.988,235.255z"/>
	<path fill="#CCCBCA" d="M114.539,235.255H3.498c0,9.529,7.72,17.245,17.246,17.245h111.032
		C122.257,252.497,114.539,244.784,114.539,235.255z"/>
</g>
<g>
	<g>
		<rect x="50.41" y="112.685" fill="#36404A" width="86.196" height="3.831"/>
		<rect x="50.41" y="120.348" fill="#E6E5E5" width="43.096" height="3.831"/>
	</g>
	<g>
		<rect x="50.41" y="208.215" fill="#E6E5E5" width="86.196" height="3.831"/>
		<rect x="50.41" y="215.881" fill="#E6E5E5" width="86.196" height="3.83"/>
		<rect x="50.41" y="223.541" fill="#E6E5E5" width="43.096" height="3.83"/>
	</g>
	<g>
		<g>
			<path fill="#36404A" d="M99.457,186.522c-5.202,5.196-12.386,8.407-20.322,8.407c-15.858,0-28.725-12.864-28.725-28.726
				c0-11.975,7.327-22.242,17.744-26.55l10.981,26.55L99.457,186.522z"/>
			<path fill="#F47B56" d="M107.872,166.198H79.139v-28.733C95.004,137.465,107.872,150.331,107.872,166.198z"/>
			<path fill="#E6E5E5" d="M107.872,166.198c0,7.931-3.214,15.116-8.416,20.319l-20.318-20.319H107.872z"/>
			<path fill="#FFDB7A" d="M79.134,137.465v28.739l-10.981-26.55C71.532,138.238,75.249,137.465,79.134,137.465z"/>
		</g>
		<g>
			<g>
				<rect x="114.751" y="137.465" fill="#F47B56" width="6.706" height="6.705"/>
				<rect x="114.751" y="154.385" fill="#E6E5E5" width="6.706" height="6.702"/>
				<rect x="114.752" y="171.306" fill="#36404A" width="6.704" height="6.702"/>
				<rect x="114.751" y="188.227" fill="#FFDB7A" width="6.706" height="6.703"/>
			</g>
			<g>
				<rect x="125.965" y="140.34" fill="#E6E5E5" width="10.64" height="3.83"/>
				<rect x="125.965" y="157.257" fill="#E6E5E5" width="10.64" height="3.83"/>
				<rect x="125.965" y="174.178" fill="#E6E5E5" width="10.64" height="3.83"/>
				<rect x="125.965" y="191.1" fill="#E6E5E5" width="10.64" height="3.83"/>
			</g>
		</g>
	</g>
</g>
<g>
	<g>
		<g>
			<rect x="119.396" y="57.835" fill="#36404A" width="12.316" height="10.324"/>
			<rect x="137.864" y="43.003" fill="#CCCBCA" width="12.316" height="25.156"/>
			<rect x="156.336" y="51.319" fill="#CCCBCA" width="12.31" height="16.84"/>
			<rect x="174.808" y="20.746" fill="#F47B56" width="12.31" height="47.414"/>
			<rect x="193.282" y="37.717" fill="#CCCBCA" width="12.308" height="30.442"/>
		</g>
	</g>
	<g>
		<rect x="119.396" y="76.053" fill="#CCCBCA" width="86.193" height="3.832"/>
		<rect x="119.396" y="83.715" fill="#CCCBCA" width="86.193" height="3.831"/>
	</g>
	<g>
		<rect x="119.396" y="20.746" fill="#CCCBCA" width="30.788" height="11.493"/>
		<rect x="123.226" y="24.576" fill="#FFFFFF" width="23.129" height="3.832"/>
		<polygon fill="#CCCBCA" points="144.025,38.399 137.864,32.239 144.025,32.239 		"/>
	</g>
</g>
</svg>
