<?xml version="1.0" encoding="utf-8"?>
<!-- Generator: Adobe Illustrator 15.1.0, SVG Export Plug-In . SVG Version: 6.00 Build 0)  -->
<!DOCTYPE svg PUBLIC "-//W3C//DTD SVG 1.1//EN" "http://www.w3.org/Graphics/SVG/1.1/DTD/svg11.dtd">
<svg version="1.1" id="Layer_1" xmlns="http://www.w3.org/2000/svg" xmlns:xlink="http://www.w3.org/1999/xlink" x="0px" y="0px"
	 width="256px" height="256px" viewBox="0 0 256 256" enable-background="new 0 0 256 256" xml:space="preserve">
<g>
	<polygon fill="#AAB5BE" points="40.893,99.823 127.506,157.566 127.506,42.07 	"/>
	<polygon fill="#CDD3DA" points="214.136,99.823 127.506,157.566 127.506,42.07 	"/>
	<polygon fill="#88D6F8" points="40.893,99.823 40.893,200.894 127.506,258.645 127.506,157.566 	"/>
	<polygon fill="#55BFEB" points="214.136,99.823 214.136,200.894 165.573,233.295 127.506,258.645 127.506,157.566 	"/>
	<polygon fill="#FFFFFF" points="163.381,0.688 127.506,42.07 214.136,99.823 249.992,58.435 	"/>
	<polygon fill="#FFFFFF" points="127.506,157.566 91.681,198.956 5.046,141.199 40.893,99.823 	"/>
	<polygon fill="#FFFFFF" points="127.506,42.07 40.893,99.823 5.025,58.435 91.681,0.688 	"/>
	<polygon fill="#FFFFFF" points="249.992,141.199 163.365,198.956 127.506,157.566 214.136,99.823 	"/>
</g>
</svg>
