<?xml version="1.0" encoding="utf-8"?>
<!-- Generator: Adobe Illustrator 15.1.0, SVG Export Plug-In . SVG Version: 6.00 Build 0)  -->
<!DOCTYPE svg PUBLIC "-//W3C//DTD SVG 1.1//EN" "http://www.w3.org/Graphics/SVG/1.1/DTD/svg11.dtd">
<svg version="1.1" id="Layer_1" xmlns="http://www.w3.org/2000/svg" xmlns:xlink="http://www.w3.org/1999/xlink" x="0px" y="0px"
	 width="256px" height="256px" viewBox="0 0 256 256" enable-background="new 0 0 256 256" xml:space="preserve">
<g>
	<g>
		<path fill="#F89D51" d="M127.999,104.99c38.796,0,70.358,31.558,70.358,70.357h39.216c0-60.511-49.061-109.569-109.574-109.569
			c-60.512,0-109.569,49.059-109.569,109.569h39.215C57.645,136.548,89.207,104.99,127.999,104.99z"/>
		<path fill="#F08123" d="M128.01,65.775c-60.528,0-109.565,49.061-109.565,109.566h16.147c0-51.513,41.888-93.421,93.417-93.421
			c51.507,0,93.427,41.908,93.427,93.421h16.146C237.584,114.836,188.517,65.775,128.01,65.775z"/>
		<g>
			<rect x="1.131" y="175.347" fill="#F89D51" width="253.738" height="39.211"/>
			<rect x="1.131" y="198.41" fill="#F08123" width="253.738" height="16.147"/>
			<g>
				<g>
					<rect x="242.646" y="203.027" fill="#364A5E" width="1.382" height="11.53"/>
					<rect x="219.574" y="203.027" fill="#364A5E" width="1.38" height="11.53"/>
					<rect x="196.513" y="203.027" fill="#364A5E" width="1.381" height="11.53"/>
					<rect x="173.438" y="203.027" fill="#364A5E" width="1.388" height="11.53"/>
					<rect x="150.378" y="203.027" fill="#364A5E" width="1.382" height="11.53"/>
					<rect x="127.305" y="203.027" fill="#364A5E" width="1.386" height="11.53"/>
					<rect x="104.241" y="203.027" fill="#364A5E" width="1.38" height="11.53"/>
					<rect x="81.177" y="203.027" fill="#364A5E" width="1.376" height="11.53"/>
					<rect x="58.106" y="203.027" fill="#364A5E" width="1.383" height="11.53"/>
					<rect x="35.042" y="203.027" fill="#364A5E" width="1.383" height="11.53"/>
					<rect x="11.975" y="203.027" fill="#364A5E" width="1.384" height="11.53"/>
				</g>
			</g>
			<g>
				<g>
					<rect x="23.623" y="208.792" fill="#364A5E" width="1.151" height="5.766"/>
					<rect x="46.687" y="208.792" fill="#364A5E" width="1.157" height="5.766"/>
					<rect x="69.755" y="208.792" fill="#364A5E" width="1.153" height="5.766"/>
					<rect x="92.824" y="208.792" fill="#364A5E" width="1.151" height="5.766"/>
					<rect x="115.892" y="208.792" fill="#364A5E" width="1.152" height="5.766"/>
					<rect x="138.961" y="208.792" fill="#364A5E" width="1.146" height="5.766"/>
					<rect x="162.021" y="208.792" fill="#364A5E" width="1.156" height="5.766"/>
					<rect x="185.094" y="208.792" fill="#364A5E" width="1.151" height="5.766"/>
					<rect x="208.154" y="208.792" fill="#364A5E" width="1.158" height="5.766"/>
					<rect x="231.228" y="208.792" fill="#364A5E" width="1.152" height="5.766"/>
				</g>
			</g>
		</g>
		<g>
			<g>
				<rect x="18.43" y="173.96" fill="#364A5E" width="11.536" height="1.387"/>
				<polygon fill="#364A5E" points="31.578,157.64 31.335,159.004 19.977,156.998 20.221,155.64 				"/>
				
					<rect x="29.759" y="134.066" transform="matrix(-0.3443 0.9389 -0.9389 -0.3443 172.2193 159.3893)" fill="#364A5E" width="1.385" height="11.534"/>
				<polygon fill="#364A5E" points="43.45,125.725 42.753,126.923 32.766,121.152 33.464,119.959 				"/>
				
					<rect x="47.808" y="102.853" transform="matrix(-0.6407 0.7678 -0.7678 -0.6407 162.9689 140.9856)" fill="#364A5E" width="1.38" height="11.538"/>
				
					<rect x="60.592" y="90.053" transform="matrix(-0.7656 0.6433 -0.6433 -0.7656 169.8428 129.7547)" fill="#364A5E" width="1.378" height="11.537"/>
				
					<rect x="75.411" y="79.683" transform="matrix(-0.8672 0.4979 -0.4979 -0.8672 184.6475 121.6604)" fill="#364A5E" width="1.382" height="11.533"/>
				<polygon fill="#364A5E" points="95.128,82.98 93.826,83.458 89.883,72.618 91.181,72.138 				"/>
				
					<rect x="109.281" y="67.356" transform="matrix(-0.9847 0.1745 -0.1745 -0.9847 231.0093 125.9359)" fill="#364A5E" width="1.377" height="11.53"/>
				<rect x="127.32" y="65.772" fill="#364A5E" width="1.376" height="11.534"/>
				
					<rect x="145.363" y="67.343" transform="matrix(-0.9855 -0.1699 0.1699 -0.9855 277.5628 169.9745)" fill="#364A5E" width="1.382" height="11.537"/>
				
					<rect x="162.823" y="72.035" transform="matrix(-0.9395 -0.3426 0.3426 -0.9395 290.4775 206.9208)" fill="#364A5E" width="1.382" height="11.54"/>
				
					<rect x="179.234" y="79.669" transform="matrix(-0.8669 -0.4985 0.4985 -0.8669 293.2993 249.203)" fill="#364A5E" width="1.38" height="11.542"/>
				<polygon fill="#364A5E" points="191.557,100.686 190.497,99.804 197.917,90.966 198.97,91.858 				"/>
				<polygon fill="#364A5E" points="203.554,112.856 202.666,111.802 211.503,104.382 212.396,105.448 				"/>
				
					<rect x="217.217" y="117.662" transform="matrix(-0.4977 -0.8674 0.8674 -0.4977 219.2894 373.8618)" fill="#364A5E" width="1.378" height="11.536"/>
				
					<rect x="224.88" y="134.07" transform="matrix(-0.3452 -0.9385 0.9385 -0.3452 172.1938 399.8164)" fill="#364A5E" width="1.378" height="11.54"/>
				
					<rect x="229.544" y="151.56" transform="matrix(-0.1748 -0.9846 0.9846 -0.1748 115.5828 411.5201)" fill="#364A5E" width="1.38" height="11.534"/>
				<rect x="226.03" y="173.96" fill="#364A5E" width="11.545" height="1.382"/>
			</g>
		</g>
		<g>
			<g>
				
					<rect x="21.136" y="163.177" transform="matrix(-0.0853 0.9964 -0.9964 -0.0853 189.022 158.588)" fill="#364A5E" width="1.157" height="5.769"/>
				
					<rect x="24.375" y="144.862" transform="matrix(-0.2564 0.9666 -0.9666 -0.2564 174.1576 161.5125)" fill="#364A5E" width="1.156" height="5.767"/>
				<polygon fill="#364A5E" points="34.172,130.95 33.683,131.999 28.454,129.557 28.948,128.517 				"/>
				
					<rect x="40.043" y="111.267" transform="matrix(-0.5712 0.8208 -0.8208 -0.5712 157.5151 146.0129)" fill="#364A5E" width="1.148" height="5.769"/>
				
					<rect x="51.986" y="97.017" transform="matrix(-0.7061 0.7082 -0.7082 -0.7061 160.4226 133.2117)" fill="#364A5E" width="1.156" height="5.767"/>
				
					<rect x="66.238" y="85.045" transform="matrix(-0.8187 0.5743 -0.5743 -0.8187 172.0088 121.5447)" fill="#364A5E" width="1.153" height="5.77"/>
				
					<rect x="82.33" y="75.773" transform="matrix(-0.9076 0.4198 -0.4198 -0.9076 191.1771 115.2392)" fill="#364A5E" width="1.156" height="5.765"/>
				
					<rect x="99.811" y="69.4" transform="matrix(-0.9651 0.2618 -0.2618 -0.9651 216.2053 115.7653)" fill="#364A5E" width="1.16" height="5.768"/>
				
					<rect x="118.137" y="66.188" transform="matrix(-0.9965 0.0842 -0.0842 -0.9965 242.8214 127.9068)" fill="#364A5E" width="1.154" height="5.768"/>
				
					<rect x="136.73" y="66.168" transform="matrix(-0.9964 -0.0847 0.0847 -0.9964 268.2621 149.4957)" fill="#364A5E" width="1.147" height="5.773"/>
				
					<rect x="155.049" y="69.423" transform="matrix(-0.9645 -0.2642 0.2642 -0.9645 286.6205 183.1536)" fill="#364A5E" width="1.153" height="5.761"/>
				<polygon fill="#364A5E" points="172.408,81.511 171.361,81.021 173.8,75.791 174.839,76.285 				"/>
				<polygon fill="#364A5E" points="188.021,90.648 187.081,89.982 190.386,85.257 191.333,85.924 				"/>
				
					<rect x="202.873" y="97.021" transform="matrix(-0.7048 -0.7094 0.7094 -0.7048 275.9558 314.6459)" fill="#364A5E" width="1.15" height="5.766"/>
				
					<rect x="214.848" y="111.268" transform="matrix(-0.5699 -0.8217 0.8217 -0.5699 244.3937 356.217)" fill="#364A5E" width="1.15" height="5.761"/>
				
					<rect x="224.124" y="127.359" transform="matrix(-0.4227 -0.9062 0.9062 -0.4227 201.6622 388.9412)" fill="#364A5E" width="1.157" height="5.77"/>
				
					<rect x="230.508" y="144.848" transform="matrix(-0.2575 -0.9663 0.9663 -0.2575 147.8246 409.0619)" fill="#364A5E" width="1.153" height="5.77"/>
				
					<rect x="233.732" y="163.155" transform="matrix(-0.0866 -0.9962 0.9962 -0.0866 89.1878 413.8509)" fill="#364A5E" width="1.15" height="5.772"/>
			</g>
		</g>
	</g>
	<g>
		<rect x="126.708" y="36.327" fill="#F3F9FD" width="2.599" height="9.086"/>
		<rect x="126.155" y="44.735" fill="#5E6E7F" width="3.712" height="3.711"/>
		<rect x="87.183" y="132.073" fill="#364A5E" width="81.661" height="2.597"/>
		<rect x="126.155" y="122.237" fill="#F3F9FD" width="3.712" height="22.27"/>
		<path fill="#364A5E" d="M128.01,82.691c-10.849,0-19.675-8.822-19.675-19.666c0-10.847,8.826-19.669,19.675-19.669
			c10.844,0,19.665,8.821,19.665,19.669C147.675,73.871,138.854,82.691,128.01,82.691z M128.01,45.582
			c-9.618,0-17.451,7.819-17.451,17.444c0,9.62,7.833,17.446,17.451,17.446c9.619,0,17.442-7.827,17.442-17.446
			C145.454,53.403,137.629,45.582,128.01,45.582z"/>
		<g>
			<g>
				<path fill="#5E6E7F" d="M173.317,243.294c0.114,0.047,0.228,0.054,0.334,0.021l0.297-0.074c0.104-0.034,0.203-0.097,0.284-0.189
					c0.067-0.098,0.104-0.211,0.104-0.324l-0.037-3.316l-2.862,0.767l1.633,2.896C173.117,243.167,173.205,243.244,173.317,243.294z
					"/>
				
					<rect x="170.499" y="233.108" transform="matrix(-0.9653 0.261 -0.261 -0.9653 399.7321 419.9097)" fill="#364A5E" width="2.963" height="6.784"/>
			</g>
			<path fill="#F3F9FD" d="M169.524,213.562l5.137,19.176c0.248,0.916,0.142,1.933-0.371,2.817
				c-0.514,0.881-1.338,1.485-2.255,1.728l-0.353,0.098c-0.465,0.121-0.972,0.069-1.415-0.188c-0.439-0.252-0.736-0.672-0.861-1.123
				l-5.62-20.975L169.524,213.562z"/>
			<polygon fill="#5E6E7F" points="146.48,150.507 154.291,179.665 165.043,176.784 135.575,66.784 131.807,67.789 128.01,81.584 
				137.828,118.239 141.566,117.241 150.213,149.507 			"/>
			<polygon fill="#364A5E" points="154.291,179.665 168.805,233.853 171.515,233.128 174.857,213.393 165.043,176.784 			"/>
			<path fill="#F3F9FD" d="M178.737,213.555c1.065,3.958-1.286,8.029-5.248,9.085c-3.958,1.063-8.026-1.283-9.092-5.249
				c-1.058-3.954,1.294-8.027,5.248-9.088C173.607,207.242,177.681,209.593,178.737,213.555z"/>
			<circle fill="#5E6E7F" cx="171.567" cy="215.473" r="1.854"/>
			
				<rect x="156.723" y="159.976" transform="matrix(0.9647 -0.2632 0.2632 0.9647 -39.002 47.3617)" fill="#364A5E" width="1.109" height="18.561"/>
			<polygon fill="#F3F9FD" points="168.147,174.026 164.566,174.985 160.721,160.642 164.305,159.689 			"/>
			
				<rect x="150.431" y="169.045" transform="matrix(-0.9658 0.2591 -0.2591 -0.9658 341.4755 296.7861)" fill="#F3F9FD" width="1.492" height="3.707"/>
		</g>
		<g>
			<polygon fill="#E1EFFA" points="84.34,233.086 82.406,240.296 82.363,243.315 83.838,240.68 85.773,233.473 			"/>
			<path fill="#F3F9FD" d="M84.714,225.956l-2.302,8.599c-0.149,0.554-0.09,1.16,0.219,1.692c0.303,0.535,0.801,0.893,1.352,1.036
				c0.546,0.148,1.157,0.087,1.686-0.223c0.533-0.308,0.893-0.804,1.041-1.35l2.302-8.604L84.714,225.956z"/>
			<polygon fill="#5E6E7F" points="105.808,149.507 114.454,117.241 118.189,118.239 128.01,81.584 124.211,67.789 120.447,66.784 
				81.167,213.393 84.499,233.135 87.204,233.853 109.543,150.507 			"/>
			<circle fill="#F3F9FD" cx="128.01" cy="81.584" r="7.423"/>
			<circle fill="#5E6E7F" cx="128.01" cy="81.583" r="1.857"/>
		</g>
		<g>
			<g>
				<circle fill="#364A5E" cx="106.449" cy="133.37" r="1.855"/>
				<circle fill="#364A5E" cx="149.571" cy="133.369" r="1.854"/>
			</g>
		</g>
		<g>
			<g>
				<rect x="98.396" y="131.516" fill="#F3F9FD" width="3.712" height="3.709"/>
				<rect x="153.907" y="131.516" fill="#F3F9FD" width="3.712" height="3.709"/>
			</g>
		</g>
		<polygon fill="#5E6E7F" points="133.204,32.195 130.604,42.354 125.408,42.354 122.814,32.195 		"/>
		<rect x="122.814" y="12.665" fill="#364A5E" width="10.389" height="19.53"/>
	</g>
</g>
</svg>
