<?xml version="1.0" encoding="utf-8"?>
<!-- Generator: Adobe Illustrator 15.1.0, SVG Export Plug-In . SVG Version: 6.00 Build 0)  -->
<!DOCTYPE svg PUBLIC "-//W3C//DTD SVG 1.1//EN" "http://www.w3.org/Graphics/SVG/1.1/DTD/svg11.dtd">
<svg version="1.1" id="Layer_1" xmlns="http://www.w3.org/2000/svg" xmlns:xlink="http://www.w3.org/1999/xlink" x="0px" y="0px"
	 width="256px" height="256px" viewBox="0 0 256 256" enable-background="new 0 0 256 256" xml:space="preserve">
<g>
	<g>
		<g>
			<rect x="32.417" y="66.733" fill="#36404A" width="31.861" height="126.271"/>
			<g>
				<path fill="#FFFFFF" d="M56.311,170.924c0,4.408-3.567,7.977-7.963,7.977c-4.408,0-7.968-3.567-7.968-7.977
					c0-4.389,3.56-7.953,7.968-7.953C52.744,162.971,56.311,166.535,56.311,170.924z"/>
				<path fill="#242E39" d="M54.859,170.924c0,3.612-2.917,6.521-6.511,6.521c-3.601,0-6.522-2.909-6.522-6.521
					c0-3.592,2.922-6.514,6.522-6.514C51.942,164.41,54.859,167.332,54.859,170.924z"/>
			</g>
			<g>
				<rect x="38.211" y="73.105" fill="#FFFFFF" width="20.273" height="75.756"/>
				<g>
					<rect x="41.831" y="77.088" fill="#CCCBCA" width="13.034" height="14.338"/>
					<rect x="41.831" y="137.711" fill="#CCCBCA" width="13.034" height="7.169"/>
					<rect x="41.831" y="96.211" fill="#CCCBCA" width="13.034" height="1.598"/>
					<rect x="41.831" y="102.6" fill="#CCCBCA" width="13.034" height="1.593"/>
					<rect x="41.831" y="108.979" fill="#CCCBCA" width="13.034" height="1.597"/>
					<rect x="41.831" y="115.366" fill="#CCCBCA" width="13.034" height="1.596"/>
					<rect x="41.831" y="121.75" fill="#CCCBCA" width="13.034" height="1.598"/>
				</g>
			</g>
		</g>
		<g>
			<rect x="64.278" y="66.733" fill="#F47B56" width="31.861" height="126.271"/>
			<g>
				<path fill="#FFFFFF" d="M88.172,170.924c0,4.408-3.566,7.977-7.963,7.977c-4.408,0-7.967-3.567-7.967-7.977
					c0-4.389,3.559-7.953,7.967-7.953C84.605,162.971,88.172,166.535,88.172,170.924z"/>
				<path fill="#242E39" d="M86.72,170.924c0,3.612-2.917,6.521-6.511,6.521c-3.6,0-6.522-2.909-6.522-6.521
					c0-3.592,2.922-6.514,6.522-6.514C83.803,164.41,86.72,167.332,86.72,170.924z"/>
			</g>
			<g>
				<rect x="70.072" y="73.105" fill="#FFFFFF" width="20.273" height="75.756"/>
				<g>
					<rect x="73.691" y="77.088" fill="#CCCBCA" width="13.034" height="14.338"/>
					<rect x="73.691" y="137.711" fill="#CCCBCA" width="13.034" height="7.169"/>
					<rect x="73.691" y="96.211" fill="#CCCBCA" width="13.034" height="1.598"/>
					<rect x="73.691" y="102.6" fill="#CCCBCA" width="13.034" height="1.593"/>
					<rect x="73.691" y="108.979" fill="#CCCBCA" width="13.034" height="1.597"/>
					<rect x="73.691" y="115.366" fill="#CCCBCA" width="13.034" height="1.596"/>
					<rect x="73.691" y="121.75" fill="#CCCBCA" width="13.034" height="1.598"/>
				</g>
			</g>
		</g>
		<g>
			<rect x="96.139" y="66.733" fill="#36404A" width="31.861" height="126.271"/>
			<g>
				<path fill="#FFFFFF" d="M120.033,170.924c0,4.408-3.567,7.977-7.963,7.977c-4.408,0-7.968-3.567-7.968-7.977
					c0-4.389,3.56-7.953,7.968-7.953C116.466,162.971,120.033,166.535,120.033,170.924z"/>
				<path fill="#242E39" d="M118.582,170.924c0,3.612-2.917,6.521-6.511,6.521c-3.601,0-6.522-2.909-6.522-6.521
					c0-3.592,2.922-6.514,6.522-6.514C115.664,164.41,118.582,167.332,118.582,170.924z"/>
			</g>
			<g>
				<rect x="101.933" y="73.105" fill="#FFFFFF" width="20.273" height="75.756"/>
				<g>
					<rect x="105.553" y="77.088" fill="#CCCBCA" width="13.034" height="14.338"/>
					<rect x="105.553" y="137.711" fill="#CCCBCA" width="13.034" height="7.169"/>
					<rect x="105.553" y="96.211" fill="#CCCBCA" width="13.034" height="1.598"/>
					<rect x="105.553" y="102.6" fill="#CCCBCA" width="13.034" height="1.593"/>
					<rect x="105.553" y="108.979" fill="#CCCBCA" width="13.034" height="1.597"/>
					<rect x="105.553" y="115.366" fill="#CCCBCA" width="13.034" height="1.596"/>
					<rect x="105.553" y="121.75" fill="#CCCBCA" width="13.034" height="1.598"/>
				</g>
			</g>
		</g>
		<g>
			<rect x="128" y="66.733" fill="#B3E2EF" width="31.861" height="126.271"/>
			<g>
				<path fill="#FFFFFF" d="M151.895,170.924c0,4.408-3.566,7.977-7.963,7.977c-4.406,0-7.968-3.567-7.968-7.977
					c0-4.389,3.562-7.953,7.968-7.953C148.327,162.971,151.895,166.535,151.895,170.924z"/>
				<path fill="#242E39" d="M150.441,170.924c0,3.612-2.918,6.521-6.512,6.521c-3.601,0-6.521-2.909-6.521-6.521
					c0-3.592,2.921-6.514,6.521-6.514C147.523,164.41,150.441,167.332,150.441,170.924z"/>
			</g>
			<g>
				<rect x="133.794" y="73.105" fill="#FFFFFF" width="20.272" height="75.756"/>
				<g>
					<rect x="137.414" y="77.088" fill="#CCCBCA" width="13.033" height="14.338"/>
					<rect x="137.414" y="137.711" fill="#CCCBCA" width="13.033" height="7.169"/>
					<rect x="137.414" y="96.211" fill="#CCCBCA" width="13.033" height="1.598"/>
					<rect x="137.414" y="102.6" fill="#CCCBCA" width="13.033" height="1.593"/>
					<rect x="137.414" y="108.979" fill="#CCCBCA" width="13.033" height="1.597"/>
					<rect x="137.414" y="115.366" fill="#CCCBCA" width="13.033" height="1.596"/>
					<rect x="137.414" y="121.75" fill="#CCCBCA" width="13.033" height="1.598"/>
				</g>
			</g>
		</g>
		<rect x="159.861" y="66.733" fill="#78CEDD" width="63.722" height="126.271"/>
	</g>
	<g>
		<rect x="0.556" y="193.005" fill="#666B74" width="191.167" height="13.726"/>
		<rect x="191.723" y="193.005" fill="#242E39" width="63.723" height="13.726"/>
	</g>
</g>
</svg>
