<?xml version="1.0" encoding="utf-8"?>
<!-- Generator: Adobe Illustrator 15.1.0, SVG Export Plug-In . SVG Version: 6.00 Build 0)  -->
<!DOCTYPE svg PUBLIC "-//W3C//DTD SVG 1.1//EN" "http://www.w3.org/Graphics/SVG/1.1/DTD/svg11.dtd">
<svg version="1.1" id="Layer_1" xmlns="http://www.w3.org/2000/svg" xmlns:xlink="http://www.w3.org/1999/xlink" x="0px" y="0px"
	 width="256px" height="256px" viewBox="0 0 256 256" enable-background="new 0 0 256 256" xml:space="preserve">
<g>
	<path id="path1232" fill="#CEE2F1" d="M0.167,222.495V61.344h255.666v161.151H0.167"/>
	<path id="path1234" fill="#FFFFFF" d="M13.261,209.406V74.665h229.472v134.742H13.261"/>
	<path id="path1236" fill="#0A76A6" d="M255.833,61.584V33.505H0.167v28.079H255.833"/>
	<path id="path1238" fill="#FFFFFF" d="M242.723,47.524c0,2.202-1.763,3.964-3.924,3.964H91.485c-2.204,0-3.969-1.763-3.969-3.964
		c0-2.164,1.767-3.927,3.969-3.927h147.314C240.956,43.595,242.723,45.36,242.723,47.524"/>
	<path id="path1240" fill="#FFFFFF" d="M33.384,47.541c0,2.174-1.768,3.951-3.955,3.951c-2.178,0-3.935-1.776-3.935-3.951
		s1.756-3.938,3.935-3.938C31.616,43.603,33.384,45.367,33.384,47.541"/>
	<path id="path1242" fill="#FFFFFF" d="M55.085,47.541c0,2.174-1.756,3.951-3.93,3.951c-2.192,0-3.945-1.776-3.945-3.951
		s1.753-3.938,3.945-3.938C53.329,43.603,55.085,45.367,55.085,47.541"/>
	<path id="path1244" fill="#FFFFFF" d="M76.804,47.541c0,2.174-1.759,3.951-3.937,3.951s-3.94-1.776-3.94-3.951
		s1.763-3.938,3.94-3.938S76.804,45.367,76.804,47.541"/>
	<path id="path1246" fill="#F78E36" d="M123.532,168.755c-1.019-2.486,0.174-5.323,2.641-6.332c2.486-1.014,5.322,0.169,6.34,2.661
		c1.021,2.477-0.169,5.313-2.661,6.322c-2.472,1.015-5.308-0.165-6.316-2.651H123.532z M139.276,162.314
		c-2.54-6.209-9.632-9.186-15.864-6.638c-6.187,2.53-9.164,9.623-6.622,15.835c2.542,6.206,9.623,9.173,15.819,6.636
		C138.843,175.61,141.817,168.525,139.276,162.314"/>
	<path id="path1248" fill="#F78E36" d="M168.13,152.624l-34.96,6.379l4.078,9.992L168.13,152.624z"/>
	<path id="path1250" fill="#F78E36" d="M66.207,188.953l-8.025,9.186l6.498,11.27h31.643c-12.974-9.672-21.402-25.082-21.402-42.489
		c0-29.296,23.748-53.049,53.117-53.049c29.29,0,53.047,23.753,53.047,53.049c0,17.407-8.424,32.817-21.387,42.489h31.626
		l6.492-11.27l-8.021-9.186c1.154-3.274,2.094-6.706,2.717-10.237l11.55-3.935V159.05l-11.55-3.937
		c-0.623-3.521-1.563-6.924-2.717-10.235l8.021-9.178l-7.86-13.612l-11.989,2.341c-1.184-1.34-2.37-2.652-3.59-3.875
		c-1.254-1.249-2.563-2.46-3.9-3.617l2.365-11.954l-13.607-7.872l-9.209,8.025c-3.282-1.187-6.686-2.094-10.206-2.747l-3.933-11.521
		h-15.771l-3.929,11.521c-3.527,0.655-6.933,1.56-10.241,2.747l-9.172-8.025l-13.618,7.872l2.377,11.954
		c-1.348,1.159-2.686,2.369-3.905,3.617c-1.278,1.252-2.491,2.595-3.649,3.968l0.03-0.093l-11.956-2.341L58.182,135.7l8.025,9.178
		c-1.154,3.312-2.094,6.739-2.747,10.235l-11.52,3.937v15.731l11.52,3.935C64.113,182.247,65.053,185.679,66.207,188.953"/>
</g>
</svg>
