<?xml version="1.0" encoding="utf-8"?>
<!-- Generator: Adobe Illustrator 15.1.0, SVG Export Plug-In . SVG Version: 6.00 Build 0)  -->
<!DOCTYPE svg PUBLIC "-//W3C//DTD SVG 1.1//EN" "http://www.w3.org/Graphics/SVG/1.1/DTD/svg11.dtd">
<svg version="1.1" id="Layer_1" xmlns="http://www.w3.org/2000/svg" xmlns:xlink="http://www.w3.org/1999/xlink" x="0px" y="0px"
	 width="256px" height="256px" viewBox="0 0 256 256" enable-background="new 0 0 256 256" xml:space="preserve">
<g>
	<path id="path248" fill="#F5B541" d="M85.367,43.981V30.244c0-2.27-0.866-4.537-2.598-6.267c-1.728-1.731-4-2.597-6.266-2.597
		H20.011c-2.269,0-4.54,0.866-6.266,2.597c-1.73,1.728-2.596,3.997-2.596,6.267v36.333h233.356V52.842
		c0-2.27-0.864-4.539-2.598-6.266c-1.73-1.731-3.996-2.595-6.263-2.595H85.367"/>
	<path id="path250" fill="#FFFFFF" d="M235.646,204.523c0,2.269-0.866,4.535-2.596,6.267c-1.731,1.729-4,2.594-6.267,2.594H28.875
		c-2.27,0-4.541-0.864-6.267-2.594c-1.731-1.731-2.597-3.998-2.597-6.267V66.578c0-2.27,0.866-4.537,2.597-6.267
		c1.724-1.731,3.997-2.597,6.267-2.597h197.911c2.267,0,4.533,0.866,6.267,2.597c1.729,1.728,2.594,3.997,2.594,6.267V204.523"/>
	<path id="path252" fill="#FECE67" d="M253.368,213.384c0,2.269-0.863,4.537-2.596,6.267c-1.731,1.731-3.998,2.598-6.265,2.598
		H11.149c-2.27,0-4.54-0.866-6.267-2.598c-1.731-1.729-2.597-3.998-2.597-6.267V75.439c0-2.27,0.866-4.536,2.597-6.267
		c1.724-1.729,3.997-2.595,6.267-2.595h233.356c2.269,0,4.533,0.866,6.265,2.595c1.731,1.729,2.596,3.997,2.596,6.267v137.945"/>
	<path id="path254" fill="#FFFFFF" d="M20.011,139.42h65.356v-8.271H20.011V139.42"/>
	<path id="path256" fill="#FFFFFF" d="M20.011,122.877h65.356v-8.271H20.011V122.877"/>
	<path id="path258" fill="#343C44" d="M20.011,106.335H52.69v-8.272H20.011V106.335"/>
</g>
</svg>
