<?xml version="1.0" encoding="utf-8"?>
<!-- Generator: Adobe Illustrator 15.1.0, SVG Export Plug-In . SVG Version: 6.00 Build 0)  -->
<!DOCTYPE svg PUBLIC "-//W3C//DTD SVG 1.1//EN" "http://www.w3.org/Graphics/SVG/1.1/DTD/svg11.dtd">
<svg version="1.1" id="Layer_1" xmlns="http://www.w3.org/2000/svg" xmlns:xlink="http://www.w3.org/1999/xlink" x="0px" y="0px"
	 width="256px" height="256px" viewBox="0 0 256 256" enable-background="new 0 0 256 256" xml:space="preserve">
<g>
	<path id="path1912" fill="#106E9D" d="M2.105,246.642c-0.042-0.041-0.084-0.082-0.126-0.125L2.105,246.642 M1.977,246.517
		L1.977,246.517c-1.331-1.362-1.98-3.124-1.98-4.923l0,0C-0.001,243.393,0.646,245.154,1.977,246.517"/>
	<g id="g1914">
		<g>
			<g>
				<defs>
					<path id="SVGID_1_" d="M0.003,6.943v131.003c0-1.826,0.687-3.641,2.092-5.03c1.383-1.394,3.204-2.081,5.029-2.081h56.262
						c1.479,0,2.968,0.452,4.241,1.405c1.273,0.947,2.151,2.245,2.559,3.666L74.418,150h105.504l4.236-14.094
						c0.427-1.421,1.272-2.719,2.549-3.666c1.281-0.953,2.777-1.405,4.263-1.405h56.261c1.813,0,3.627,0.688,5.036,2.081
						c1.376,1.39,2.064,3.204,2.064,5.03V6.943H0.003"/>
				</defs>
				<clipPath id="SVGID_2_">
					<use xlink:href="#SVGID_1_"  overflow="visible"/>
				</clipPath>
				<g id="g1916" clip-path="url(#SVGID_2_)">
					<path id="path1922" fill="#364A5E" d="M88.721,324.989l-76.891-0.02V50.362l76.891,0.016V324.989"/>
					<path id="path1924" fill="#FFFFFF" d="M75.905,234.925c0,2.012-1.643,3.666-3.649,3.666H28.296c-2,0-3.649-1.654-3.649-3.666
						V71.375c0-2.016,1.639-3.657,3.649-3.657h43.941c2.012,0,3.667,1.641,3.667,3.663V234.925"/>
					<path id="path1926" fill="#E1EFFA" d="M69.501,123.458l-38.448,0.011v-2.561h38.438L69.501,123.458"/>
					<path id="path1928" fill="#E1EFFA" d="M69.491,138.845H31.053v-2.559h38.448L69.491,138.845"/>
					<path id="path1930" fill="#E1EFFA" d="M69.501,107.231H31.053V77.332h38.438L69.501,107.231"/>
					<path id="path1932" fill="#F78E36" d="M88.721,281.547h76.904V6.943H88.721V281.547z"/>
					<path id="path1934" fill="#FFFFFF" d="M152.808,191.501c0,2.001-1.655,3.673-3.684,3.673H105.2
						c-2.012,0-3.657-1.672-3.657-3.673V27.961c0-2.016,1.645-3.672,3.657-3.672h43.924c2.028,0,3.684,1.656,3.684,3.672V191.501"/>
					<path id="path1936" fill="#E1EFFA" d="M146.388,80.04h-38.442v-2.561h38.442V80.04"/>
					<path id="path1938" fill="#E1EFFA" d="M146.388,95.416h-38.442v-2.555h38.442V95.416"/>
					<path id="path1940" fill="#E1EFFA" d="M146.388,110.801h-38.442v-2.576h38.442V110.801"/>
					<path id="path1942" fill="#E1EFFA" d="M146.388,126.163h-38.442v-2.559h38.442V126.163"/>
					<path id="path1944" fill="#E1EFFA" d="M146.388,141.532h-38.442v-2.553h38.442V141.532"/>
					<path id="path1946" fill="#E1EFFA" d="M146.388,63.806h-38.442V33.894h38.442V63.806"/>
					<path id="path1948" fill="#C1D254" d="M165.625,304.777h76.886V30.181h-76.886V304.777z"/>
					<path id="path1950" fill="#FFFFFF" d="M229.691,214.72c0,2.021-1.637,3.673-3.66,3.673h-43.937c-2.012,0-3.66-1.652-3.66-3.673
						V51.176c0-2.006,1.648-3.655,3.66-3.655h43.937c2.023,0,3.66,1.649,3.66,3.655V214.72"/>
					<path id="path1952" fill="#E1EFFA" d="M223.297,103.271h-38.454v-2.56h38.454V103.271"/>
					<path id="path1954" fill="#E1EFFA" d="M223.297,118.652h-38.454v-2.565h38.454V118.652"/>
					<path id="path1956" fill="#E1EFFA" d="M184.843,134.029h38.454v-2.574h-38.454V134.029z"/>
					<path id="path1958" fill="#E1EFFA" d="M223.297,149.399h-38.454v-2.563h38.454V149.399"/>
					<path id="path1960" fill="#E1EFFA" d="M223.297,87.033h-38.454V57.133h38.454V87.033"/>
				</g>
			</g>
		</g>
	</g>
	<g id="g1962">
		<g>
			<g>
				<defs>
					<polyline id="SVGID_3_" points="165.625,30.181 165.625,6.943 88.721,6.943 88.721,50.378 11.831,50.362 11.831,248.725 
						242.511,248.725 242.511,30.181 165.625,30.181 					"/>
				</defs>
				<clipPath id="SVGID_4_">
					<use xlink:href="#SVGID_3_"  overflow="visible"/>
				</clipPath>
				<g id="g1964" clip-path="url(#SVGID_4_)">
					<path id="path1970" fill="#1F729A" d="M11.831,130.847h0.016v-0.018h-0.016V130.847z"/>
					<path id="path1972" fill="#004F7C" d="M242.511,245.17H11.831V130.847h0.016v-0.012h12.801h38.741
						c1.479,0,2.968,0.452,4.241,1.405c1.273,0.947,2.151,2.245,2.56,3.666L74.42,150h1.485h12.816v-3.555V150h12.822h51.265h12.817
						v-3.555V150h12.812h1.489l4.236-14.094c0.197-0.659,0.483-1.294,0.869-1.879c0.437-0.677,1-1.284,1.682-1.789
						c0.431-0.319,0.879-0.579,1.347-0.787c0.938-0.415,1.926-0.62,2.916-0.62h38.72h12.817v-3.554V245.17"/>
					<path id="path1974" fill="#2B3C50" d="M88.721,150H75.905v-3.553h12.816V150 M24.647,130.835H11.846h-0.016v-3.554h12.816
						V130.835"/>
					<path id="path1976" fill="#CDD3DA" d="M75.905,150H74.42l-4.231-14.094c-0.411-1.421-1.289-2.717-2.56-3.664
						c-1.272-0.955-2.762-1.405-4.241-1.405H24.647v-3.554h38.741c1.479,0,2.968,0.453,4.241,1.398
						c1.273,0.953,2.151,2.251,2.56,3.672l4.231,14.094h1.485V150"/>
					<path id="path1978" fill="#CE7629" d="M165.625,150h-12.817v-3.553h12.817V150 M101.543,150H88.721v-3.553h12.822V150"/>
					<path id="path1980" fill="#CDD3DA" d="M101.543,150h51.265v-3.553h-51.265V150z"/>
					<path id="path1982" fill="#9BAF46" d="M178.435,150h-12.813v-3.553h12.813V150 M242.511,130.835h-12.819v-3.554h12.819V130.835
						"/>
					<path id="path1984" fill="#CDD3DA" d="M179.922,150h-1.487v-3.553h1.487l4.24-14.094c0.423-1.421,1.269-2.719,2.547-3.672
						c1.281-0.947,2.777-1.398,4.263-1.398h38.72v3.554h-38.718c-0.99,0-1.977,0.203-2.916,0.618h-3.215v2.576h0.187
						c-0.384,0.585-0.672,1.218-0.867,1.879L179.922,150"/>
					<path id="path1986" fill="#B5C6D6" d="M185.029,134.029h-0.187v-2.574h3.215c-0.466,0.208-0.917,0.466-1.347,0.787
						C186.029,132.745,185.47,133.353,185.029,134.029"/>
				</g>
			</g>
		</g>
	</g>
	<path id="path1988" fill="#E1EFFA" d="M252.271,132.916c-1.409-1.394-3.224-2.081-5.036-2.081h-56.261
		c-1.485,0-2.979,0.452-4.263,1.405c-1.28,0.953-2.126,2.245-2.549,3.666L179.926,150H74.422l-4.231-14.094
		c-0.411-1.421-1.289-2.715-2.56-3.666c-1.271-0.953-2.762-1.405-4.241-1.405H7.124c-1.825,0-3.646,0.688-5.029,2.081
		c-1.405,1.39-2.092,3.204-2.092,5.03v103.665c0,1.818,0.687,3.639,2.092,5.034c1.383,1.388,3.204,2.079,5.029,2.079h240.11
		c1.813,0,3.627-0.691,5.036-2.079c1.376-1.394,2.065-3.216,2.065-5.034V137.946C254.336,136.12,253.646,134.306,252.271,132.916"/>
	<path id="path1990" fill="#364A5E" d="M178.041,201.005c0,2.46-2.012,4.461-4.469,4.461H80.758c-2.454,0-4.466-2.001-4.466-4.461
		v-3.289c0-2.456,2.012-4.457,4.466-4.457h92.814c2.457,0,4.469,2.001,4.469,4.457V201.005"/>
</g>
</svg>
