<?xml version="1.0" encoding="utf-8"?>
<!-- Generator: Adobe Illustrator 15.1.0, SVG Export Plug-In . SVG Version: 6.00 Build 0)  -->
<!DOCTYPE svg PUBLIC "-//W3C//DTD SVG 1.1//EN" "http://www.w3.org/Graphics/SVG/1.1/DTD/svg11.dtd">
<svg version="1.1" id="Layer_1" xmlns="http://www.w3.org/2000/svg" xmlns:xlink="http://www.w3.org/1999/xlink" x="0px" y="0px"
	 width="256px" height="256px" viewBox="0 0 256 256" enable-background="new 0 0 256 256" xml:space="preserve">
<g>
	<rect x="19.271" y="73.377" fill="#4A5158" width="217.457" height="179.24"/>
	<g>
		<path fill="#FFFFFF" d="M255.182,66.787c0,3.625-2.966,6.591-6.588,6.591H7.41c-3.627,0-6.592-2.965-6.592-6.591v-56.67
			c0-3.625,2.965-6.59,6.592-6.59h241.184c3.622,0,6.588,2.965,6.588,6.59V66.787z"/>
		<g>
			<g>
				<rect x="19.271" y="21.979" fill="#CCCBCA" width="6.588" height="6.588"/>
				<rect x="32.449" y="21.979" fill="#CCCBCA" width="6.589" height="6.588"/>
				<rect x="45.626" y="21.979" fill="#CCCBCA" width="6.592" height="6.588"/>
				<rect x="58.808" y="21.979" fill="#CCCBCA" width="6.589" height="6.588"/>
				<rect x="71.988" y="21.979" fill="#CCCBCA" width="6.589" height="6.588"/>
				<rect x="85.166" y="21.979" fill="#CCCBCA" width="6.589" height="6.588"/>
				<rect x="98.347" y="21.979" fill="#CCCBCA" width="6.589" height="6.588"/>
				<rect x="111.528" y="21.979" fill="#CCCBCA" width="6.589" height="6.588"/>
			</g>
			<g>
				<rect x="19.271" y="35.157" fill="#CCCBCA" width="6.588" height="6.589"/>
				<rect x="32.449" y="35.157" fill="#CCCBCA" width="6.589" height="6.589"/>
				<rect x="45.626" y="35.157" fill="#CCCBCA" width="6.592" height="6.589"/>
				<rect x="58.808" y="35.157" fill="#CCCBCA" width="6.589" height="6.589"/>
				<rect x="71.988" y="35.157" fill="#CCCBCA" width="6.589" height="6.589"/>
				<rect x="85.166" y="35.157" fill="#CCCBCA" width="6.589" height="6.589"/>
				<rect x="98.347" y="35.157" fill="#CCCBCA" width="6.589" height="6.589"/>
				<rect x="111.528" y="35.157" fill="#CCCBCA" width="6.589" height="6.589"/>
			</g>
			<g>
				<rect x="19.271" y="48.337" fill="#CCCBCA" width="6.588" height="6.59"/>
				<rect x="32.449" y="48.337" fill="#CCCBCA" width="6.589" height="6.59"/>
				<rect x="45.626" y="48.337" fill="#CCCBCA" width="6.592" height="6.59"/>
				<rect x="58.808" y="48.337" fill="#CCCBCA" width="6.589" height="6.59"/>
				<rect x="71.988" y="48.337" fill="#CCCBCA" width="6.589" height="6.59"/>
				<rect x="85.166" y="48.337" fill="#CCCBCA" width="6.589" height="6.59"/>
				<rect x="98.347" y="48.337" fill="#CCCBCA" width="6.589" height="6.59"/>
				<rect x="111.528" y="48.337" fill="#CCCBCA" width="6.589" height="6.59"/>
			</g>
		</g>
		<g>
			<rect x="223.552" y="31.861" fill="#EA6653" width="13.177" height="13.181"/>
			<rect x="197.192" y="31.861" fill="#4A5158" width="13.178" height="13.181"/>
			<rect x="170.833" y="31.861" fill="#4A5158" width="13.182" height="13.181"/>
		</g>
	</g>
	<g>
		<path fill="#FFFFFF" d="M255.182,149.816c0,3.624-2.966,6.593-6.588,6.593H7.41c-3.627,0-6.592-2.969-6.592-6.593V93.147
			c0-3.625,2.965-6.591,6.592-6.591h241.184c3.622,0,6.588,2.966,6.588,6.591V149.816z"/>
		<g>
			<g>
				<rect x="19.271" y="105.008" fill="#CCCBCA" width="6.588" height="6.59"/>
				<rect x="32.449" y="105.008" fill="#CCCBCA" width="6.589" height="6.59"/>
				<rect x="45.626" y="105.008" fill="#CCCBCA" width="6.592" height="6.59"/>
				<rect x="58.808" y="105.008" fill="#CCCBCA" width="6.589" height="6.59"/>
				<rect x="71.988" y="105.008" fill="#CCCBCA" width="6.589" height="6.59"/>
				<rect x="85.166" y="105.008" fill="#CCCBCA" width="6.589" height="6.59"/>
				<rect x="98.347" y="105.008" fill="#CCCBCA" width="6.589" height="6.59"/>
				<rect x="111.528" y="105.008" fill="#CCCBCA" width="6.589" height="6.59"/>
			</g>
			<g>
				<rect x="19.271" y="118.188" fill="#CCCBCA" width="6.588" height="6.59"/>
				<rect x="32.449" y="118.188" fill="#CCCBCA" width="6.589" height="6.59"/>
				<rect x="45.626" y="118.188" fill="#CCCBCA" width="6.592" height="6.59"/>
				<rect x="58.808" y="118.188" fill="#CCCBCA" width="6.589" height="6.59"/>
				<rect x="71.988" y="118.188" fill="#CCCBCA" width="6.589" height="6.59"/>
				<rect x="85.166" y="118.188" fill="#CCCBCA" width="6.589" height="6.59"/>
				<rect x="98.347" y="118.188" fill="#CCCBCA" width="6.589" height="6.59"/>
				<rect x="111.528" y="118.188" fill="#CCCBCA" width="6.589" height="6.59"/>
			</g>
			<g>
				<rect x="19.271" y="131.367" fill="#CCCBCA" width="6.588" height="6.592"/>
				<rect x="32.449" y="131.367" fill="#CCCBCA" width="6.589" height="6.592"/>
				<rect x="45.626" y="131.367" fill="#CCCBCA" width="6.592" height="6.592"/>
				<rect x="58.808" y="131.367" fill="#CCCBCA" width="6.589" height="6.592"/>
				<rect x="71.988" y="131.367" fill="#CCCBCA" width="6.589" height="6.592"/>
				<rect x="85.166" y="131.367" fill="#CCCBCA" width="6.589" height="6.592"/>
				<rect x="98.347" y="131.367" fill="#CCCBCA" width="6.589" height="6.592"/>
				<rect x="111.528" y="131.367" fill="#CCCBCA" width="6.589" height="6.592"/>
			</g>
		</g>
		<g>
			<rect x="223.552" y="114.893" fill="#4A5158" width="13.177" height="13.18"/>
			<rect x="197.192" y="114.893" fill="#4A5158" width="13.178" height="13.18"/>
			<rect x="170.833" y="114.893" fill="#EA6653" width="13.182" height="13.18"/>
		</g>
	</g>
	<g>
		<path fill="#FFFFFF" d="M255.182,232.849c0,3.627-2.966,6.588-6.588,6.588H7.41c-3.627,0-6.592-2.961-6.592-6.588v-56.67
			c0-3.624,2.965-6.592,6.592-6.592h241.184c3.622,0,6.588,2.968,6.588,6.592V232.849z"/>
		<g>
			<g>
				<rect x="19.271" y="188.04" fill="#CCCBCA" width="6.588" height="6.592"/>
				<rect x="32.449" y="188.04" fill="#CCCBCA" width="6.589" height="6.592"/>
				<rect x="45.626" y="188.04" fill="#CCCBCA" width="6.592" height="6.592"/>
				<rect x="58.808" y="188.04" fill="#CCCBCA" width="6.589" height="6.592"/>
				<rect x="71.988" y="188.04" fill="#CCCBCA" width="6.589" height="6.592"/>
				<rect x="85.166" y="188.04" fill="#CCCBCA" width="6.589" height="6.592"/>
				<rect x="98.347" y="188.04" fill="#CCCBCA" width="6.589" height="6.592"/>
				<rect x="111.528" y="188.04" fill="#CCCBCA" width="6.589" height="6.592"/>
			</g>
			<g>
				<rect x="19.271" y="201.218" fill="#CCCBCA" width="6.588" height="6.592"/>
				<rect x="32.449" y="201.218" fill="#CCCBCA" width="6.589" height="6.592"/>
				<rect x="45.626" y="201.218" fill="#CCCBCA" width="6.592" height="6.592"/>
				<rect x="58.808" y="201.218" fill="#CCCBCA" width="6.589" height="6.592"/>
				<rect x="71.988" y="201.218" fill="#CCCBCA" width="6.589" height="6.592"/>
				<rect x="85.166" y="201.218" fill="#CCCBCA" width="6.589" height="6.592"/>
				<rect x="98.347" y="201.218" fill="#CCCBCA" width="6.589" height="6.592"/>
				<rect x="111.528" y="201.218" fill="#CCCBCA" width="6.589" height="6.592"/>
			</g>
			<g>
				<rect x="19.271" y="214.397" fill="#CCCBCA" width="6.588" height="6.589"/>
				<rect x="32.449" y="214.397" fill="#CCCBCA" width="6.589" height="6.589"/>
				<rect x="45.626" y="214.397" fill="#CCCBCA" width="6.592" height="6.589"/>
				<rect x="58.808" y="214.397" fill="#CCCBCA" width="6.589" height="6.589"/>
				<rect x="71.988" y="214.397" fill="#CCCBCA" width="6.589" height="6.589"/>
				<rect x="85.166" y="214.397" fill="#CCCBCA" width="6.589" height="6.589"/>
				<rect x="98.347" y="214.397" fill="#CCCBCA" width="6.589" height="6.589"/>
				<rect x="111.528" y="214.397" fill="#CCCBCA" width="6.589" height="6.589"/>
			</g>
		</g>
		<g>
			<rect x="223.552" y="197.923" fill="#4A5158" width="13.177" height="13.178"/>
			<rect x="197.192" y="197.923" fill="#EA6653" width="13.178" height="13.178"/>
			<rect x="170.833" y="197.923" fill="#4A5158" width="13.182" height="13.178"/>
		</g>
	</g>
</g>
</svg>
