<?xml version="1.0" encoding="utf-8"?>
<!-- Generator: Adobe Illustrator 15.1.0, SVG Export Plug-In . SVG Version: 6.00 Build 0)  -->
<!DOCTYPE svg PUBLIC "-//W3C//DTD SVG 1.1//EN" "http://www.w3.org/Graphics/SVG/1.1/DTD/svg11.dtd">
<svg version="1.1" id="Layer_1" xmlns="http://www.w3.org/2000/svg" xmlns:xlink="http://www.w3.org/1999/xlink" x="0px" y="0px"
	 width="256px" height="256px" viewBox="0 0 256 256" enable-background="new 0 0 256 256" xml:space="preserve">
<g>
	<path id="path488" fill="#403027" d="M0.999,127.832c0-0.063,0-0.126,0-0.191C0.999,127.705,0.999,127.769,0.999,127.832
		 M0.999,127.581c0-0.045,0-0.085,0-0.131C0.999,127.496,0.999,127.536,0.999,127.581 M1,127.381c0-0.044,0-0.084,0-0.128
		C1,127.297,1,127.337,1,127.381 M1,127.186c0-0.044,0-0.088,0-0.132C1.001,127.102,1.001,127.138,1,127.186 M1.001,126.993
		c0-0.051,0.001-0.108,0.001-0.157C1.002,126.89,1.001,126.938,1.001,126.993 M1.003,126.8c0-0.062,0.001-0.129,0.001-0.189
		C1.004,126.675,1.003,126.736,1.003,126.8 M1.005,126.552c0-0.045,0.001-0.086,0.002-0.132
		C1.006,126.462,1.005,126.511,1.005,126.552 M1.008,126.347c0-0.041,0-0.08,0.001-0.121C1.008,126.264,1.008,126.309,1.008,126.347
		 M1.01,126.153c0-0.041,0.001-0.08,0.001-0.124C1.011,126.068,1.01,126.114,1.01,126.153 M1.012,125.96
		c0.001-0.045,0.001-0.09,0.002-0.137C1.014,125.87,1.013,125.915,1.012,125.96 M1.015,125.77c0.001-0.062,0.002-0.125,0.003-0.188
		C1.018,125.644,1.016,125.71,1.015,125.77 M1.02,125.522c0.001-0.042,0.001-0.086,0.002-0.13
		C1.021,125.436,1.021,125.48,1.02,125.522 M1.023,125.313c0-0.037,0.001-0.07,0.002-0.11
		C1.024,125.243,1.023,125.276,1.023,125.313 M1.027,125.118c0.001-0.033,0.002-0.073,0.003-0.104
		C1.029,125.047,1.028,125.083,1.027,125.118 M1.032,124.929c0-0.04,0.001-0.08,0.002-0.12
		C1.033,124.853,1.032,124.885,1.032,124.929 M1.036,124.741c0.001-0.061,0.003-0.129,0.004-0.19
		C1.039,124.616,1.037,124.676,1.036,124.741 M1.041,124.538c0.001-0.057,0.002-0.116,0.004-0.171
		C1.043,124.421,1.042,124.482,1.041,124.538 M1.047,124.293c0.001-0.04,0.003-0.08,0.004-0.119
		C1.05,124.213,1.048,124.254,1.047,124.293 M1.053,124.093c0.001-0.035,0.002-0.069,0.003-0.105
		C1.055,124.023,1.054,124.06,1.053,124.093 M1.058,123.9c0.001-0.036,0.003-0.066,0.003-0.104
		C1.061,123.831,1.059,123.866,1.058,123.9 M1.064,123.708c0.001-0.031,0.002-0.065,0.003-0.097
		C1.066,123.645,1.065,123.676,1.064,123.708 M1.073,123.448c0.001-0.035,0.002-0.067,0.003-0.102
		C1.076,123.379,1.074,123.416,1.073,123.448 M1.08,123.25c0-0.029,0.002-0.063,0.003-0.092C1.082,123.187,1.08,123.222,1.08,123.25
		 M1.087,123.06c0-0.033,0.002-0.056,0.002-0.089C1.089,123,1.087,123.029,1.087,123.06 M1.094,122.871
		c0-0.027,0.002-0.056,0.002-0.085C1.096,122.811,1.095,122.845,1.094,122.871 M1.102,122.68c0.001-0.025,0.002-0.048,0.002-0.072
		C1.104,122.628,1.102,122.658,1.102,122.68 M1.121,122.205c0.002-0.021,0.003-0.045,0.003-0.066
		C1.124,122.16,1.123,122.184,1.121,122.205 M1.129,122.021c0-0.02,0.001-0.042,0.003-0.063
		C1.131,121.979,1.13,122.001,1.129,122.021 M1.138,121.837c0-0.02,0.001-0.042,0.002-0.064
		C1.139,121.795,1.139,121.817,1.138,121.837 M1.146,121.653c0.001-0.018,0.001-0.038,0.002-0.056
		C1.148,121.619,1.147,121.632,1.146,121.653 M1.171,121.169c0-0.019,0.001-0.029,0.002-0.048
		C1.172,121.134,1.171,121.155,1.171,121.169 M1.18,120.99c0-0.019,0.001-0.033,0.002-0.049
		C1.181,120.955,1.181,120.977,1.18,120.99 M1.19,120.811c0-0.015,0.001-0.038,0.002-0.051C1.191,120.777,1.19,120.792,1.19,120.811
		 M1.2,120.625c0.001-0.011,0.001-0.025,0.002-0.033C1.201,120.604,1.201,120.613,1.2,120.625 M1.239,119.942
		c0-0.004,0-0.006,0-0.011C1.24,119.936,1.24,119.938,1.239,119.942 M1.25,119.776c0.001-0.008,0.001-0.015,0.002-0.023
		C1.251,119.762,1.251,119.766,1.25,119.776"/>
	<path id="path496" fill="#ED7526" d="M63.599,103.615L63.599,103.615V6.771h104.78l12.195,12.193l5.833,5.85l-5.861-5.859
		L168.357,6.771H63.599V103.615"/>
	<path id="path498" fill="#0A76A6" d="M63.599,6.771v96.849h129.131V31.141l-24.368-24.37H63.599"/>
	<path id="path500" fill="#5A7333" d="M192.729,31.14l-6.262-6.263l-0.061-0.064L192.729,31.14"/>
	<path id="path502" fill="#545E29" d="M186.468,24.878l-5.923-5.923l0,0l5.862,5.859L186.468,24.878"/>
	<path id="path504" fill="#015F91" d="M192.729,55.507L168.361,31.14l12.187-12.186l5.92,5.923l6.264,6.263v24.367"/>
	<path id="path506" fill="#FFFFFF" d="M192.729,31.14h-24.368V6.771L192.729,31.14z"/>
	<path id="path508" fill="#FFFFFF" d="M128.163,35.732H81.815v-3.711h46.348V35.732"/>
	<path id="path510" fill="#FFFFFF" d="M174.507,49.945H81.815v-3.708h92.691V49.945"/>
	<path id="path512" fill="#FFFFFF" d="M174.507,64.156H81.815v-3.707h92.691V64.156"/>
	<path id="path514" fill="#FFFFFF" d="M174.507,78.367H81.815V74.66h92.691V78.367"/>
	<path id="path516" fill="#FFFFFF" d="M160.447,248.896H95.882v-48.43h64.565V248.896"/>
	<path id="path518" fill="#FFFFFF" d="M66.829,248.896H2.264v-48.43h64.565V248.896"/>
	<path id="path520" fill="#FFFFFF" d="M254.066,248.896H189.5v-48.43h64.566V248.896"/>
	<path id="path522" fill="#364A5E" d="M131.139,200.467h-5.946v-96.85h5.946V200.467"/>
	<path id="path524" fill="#364A5E" d="M37.52,200.467h-5.943v-51.645h5.943V200.467"/>
	<path id="path526" fill="#364A5E" d="M224.762,200.467h-5.951v-51.645h5.951V200.467"/>
	<path id="path528" fill="#364A5E" d="M225.012,149.07v5.948H31.316v-5.948H225.012"/>
	<path id="path530" fill="#293B4D" d="M134.625,158.497h-12.918v-12.914h12.918V158.497"/>
	<path id="path532" fill="#293B4D" d="M40.999,158.497H28.09v-12.914h12.908V158.497"/>
	<path id="path534" fill="#293B4D" d="M228.246,158.497h-12.924v-12.914h12.924V158.497"/>
</g>
</svg>
