<?xml version="1.0" encoding="utf-8"?>
<!-- Generator: Adobe Illustrator 15.1.0, SVG Export Plug-In . SVG Version: 6.00 Build 0)  -->
<!DOCTYPE svg PUBLIC "-//W3C//DTD SVG 1.1//EN" "http://www.w3.org/Graphics/SVG/1.1/DTD/svg11.dtd">
<svg version="1.1" id="Layer_1" xmlns="http://www.w3.org/2000/svg" xmlns:xlink="http://www.w3.org/1999/xlink" x="0px" y="0px"
	 width="256px" height="256px" viewBox="0 0 256 256" enable-background="new 0 0 256 256" xml:space="preserve">
<g>
	<path id="path122" fill="#F78E36" d="M185.839,82.562c-13.564,0-24.55-10.992-24.55-24.549c0-13.559,10.985-24.55,24.55-24.55
		c13.554,0,24.551,10.992,24.551,24.55C210.39,71.57,199.396,82.562,185.839,82.562z M243.581,63.978V52.039l-8.768-2.992v0.013
		c-0.483-2.675-1.183-5.275-2.072-7.782l6.085-6.964l-5.97-10.349l-9.078,1.797l0.031,0.051c-0.89-1.042-1.813-2.044-2.771-3.006
		c-0.957-0.96-1.964-1.883-2.999-2.766l0.05,0.03l1.789-9.084l-10.343-5.974l-6.973,6.098c-2.503-0.896-5.095-1.593-7.768-2.083
		h0.007l-2.983-8.759h-11.95l-2.988,8.759h0.008c-2.67,0.49-5.274,1.186-7.783,2.083l-6.965-6.098l-10.343,5.974l1.797,9.084
		l0.044-0.03c-1.039,0.883-2.038,1.805-2.999,2.766c-0.964,0.961-1.888,1.964-2.771,3.006l0.036-0.051l-9.081-1.795l-5.974,10.345
		l6.096,6.964c-0.896,2.507-1.596,5.105-2.084,7.778v-0.009l-8.762,2.992v11.946l8.762,2.988v-0.005
		c0.49,2.674,1.189,5.27,2.084,7.771l-6.096,6.974l5.974,10.346l9.081-1.793l-0.036-0.05c0.887,1.035,1.812,2.034,2.771,3.001
		c0.961,0.957,1.96,1.881,2.993,2.759l-1.835,9.054l10.351,5.978l6.957-6.09c2.509,0.894,5.105,1.586,7.779,2.077h-0.004
		l2.988,8.757h11.95l2.987-8.757h-0.011c2.679-0.491,5.27-1.187,7.779-2.081l6.964,6.094l10.348-5.978l-1.794-9.079l-0.051,0.025
		c1.035-0.878,2.043-1.802,2.998-2.759c0.961-0.967,1.885-1.966,2.767-3.001l-0.023,0.046l9.076,1.793l5.975-10.345l-6.088-6.971
		c0.889-2.503,1.589-5.099,2.07-7.771v0.005L243.581,63.978"/>
	<path id="path124" fill="#F89D51" d="M185.839,81.417c-12.929,0-23.405-10.476-23.405-23.403c0-12.925,10.477-23.404,23.405-23.404
		c12.926,0,23.402,10.479,23.402,23.404C209.241,70.942,198.765,81.417,185.839,81.417z M185.839,27.563
		c-16.822,0-30.452,13.636-30.452,30.452c0,16.819,13.63,30.451,30.452,30.451c16.815,0,30.456-13.632,30.456-30.451
		C216.295,41.197,202.658,27.563,185.839,27.563"/>
	<path id="path126" fill="#FFFFFF" d="M95.196,197.093c-13.368,0-24.18-10.809-24.18-24.148c0-13.327,10.81-24.143,24.18-24.143
		c13.333,0,24.145,10.815,24.145,24.143C119.341,186.284,108.528,197.093,95.196,197.093z M178.271,181.54v-17.186l-12.614-4.299
		c-0.684-3.852-1.706-7.573-2.966-11.187l8.764-10.025l-8.596-14.867l-13.097,2.558c-1.293-1.47-2.596-2.901-3.923-4.233
		c-1.362-1.363-2.798-2.689-4.263-3.953l2.594-13.061l-14.87-8.595l-10.063,8.761c-3.579-1.295-7.296-2.285-11.15-3.001
		l-4.299-12.581H86.566l-4.296,12.581c-3.853,0.716-7.571,1.706-11.186,3.001l-10.026-8.761l-14.87,8.595l2.594,13.061
		c-1.47,1.262-2.937,2.588-4.264,3.953c-1.398,1.367-2.726,2.831-3.992,4.332l0.036-0.1L27.5,123.975l-8.595,14.867l8.766,10.027
		c-1.263,3.613-2.287,7.362-3,11.185l-12.584,4.297v17.188l12.584,4.299c0.714,3.856,1.74,7.609,3,11.187l-8.766,10.025
		l8.595,14.909l13.063-2.594c1.26,1.461,2.591,2.893,3.956,4.259c1.363,1.366,2.832,2.691,4.296,3.955l-2.626,13.031l14.904,8.627
		l9.992-8.762c3.615,1.256,7.37,2.282,11.186,2.962l4.296,12.622h17.222l4.299-12.622c3.854-0.68,7.571-1.706,11.186-3.002
		l10.027,8.802l14.87-8.627l-2.594-13.063c1.465-1.261,2.9-2.594,4.263-3.923c1.327-1.366,2.662-2.798,3.923-4.259l13.097,2.594
		l8.596-14.909l-8.764-10.025c1.26-3.577,2.282-7.33,2.966-11.187L178.271,181.54"/>
	<path id="path128" fill="#F89D51" d="M95.196,192.363c-10.752,0-19.445-8.688-19.445-19.413c0-10.722,8.693-19.417,19.445-19.417
		c10.719,0,19.41,8.693,19.41,19.417C114.606,183.679,105.915,192.363,95.196,192.363z M95.196,136.262
		c-20.296,0-36.723,16.424-36.723,36.688c0,20.268,16.427,36.72,36.723,36.72c20.265,0,36.691-16.452,36.691-36.72
		C131.887,152.686,115.46,136.262,95.196,136.262"/>
	<path id="path130" fill="#F08123" d="M95.198,200.457c-15.234,0-27.548-12.319-27.548-27.513s12.313-27.513,27.548-27.513
		c15.193,0,27.509,12.319,27.509,27.513S110.393,200.457,95.198,200.457z M95.198,125.185c-26.417,0-47.8,21.383-47.8,47.759
		c0,26.379,21.383,47.801,47.8,47.801c26.379,0,47.758-21.417,47.758-47.801C142.956,146.568,121.579,125.185,95.198,125.185"/>
</g>
</svg>
