<?xml version="1.0" encoding="utf-8"?>
<!-- Generator: Adobe Illustrator 15.1.0, SVG Export Plug-In . SVG Version: 6.00 Build 0)  -->
<!DOCTYPE svg PUBLIC "-//W3C//DTD SVG 1.1//EN" "http://www.w3.org/Graphics/SVG/1.1/DTD/svg11.dtd">
<svg version="1.1" id="Layer_1" xmlns="http://www.w3.org/2000/svg" xmlns:xlink="http://www.w3.org/1999/xlink" x="0px" y="0px"
	 width="256px" height="256px" viewBox="0 0 256 256" enable-background="new 0 0 256 256" xml:space="preserve">
<g>
	<g>
		<polygon fill="#4B5155" points="146.124,228.65 110.548,228.634 110.537,190.24 146.124,190.24 		"/>
		<path fill="#FFFFFF" d="M130.117,128.154c4.073,0.826,7.139,4.425,7.139,8.745c0,4.931-3.995,8.923-8.926,8.923
			c-4.93,0-8.923-3.992-8.923-8.923c0-4.325,3.068-7.922,7.146-8.745l-0.008-73.528L78.563,158.244h0.047
			c17.603,0.02,31.894,14.283,31.927,31.892v0.104h35.587l-0.003-0.083c0.036-17.63,14.329-31.894,31.954-31.913h0.036
			L130.117,54.58V128.154z"/>
		<path fill="#33383D" d="M154.226,196.194c0,3.285-2.689,5.982-5.985,5.982h-39.809c-3.295,0-5.979-2.697-5.979-5.982l0,0
			c0-3.275,2.684-5.954,5.979-5.979l39.821,0.024C151.524,190.24,154.209,192.919,154.226,196.194L154.226,196.194z"/>
	</g>
	<g>
		<g>
			<path fill="#4B5155" d="M12.12,148.998l-4.452-0.329l0.166-2.228C12.471,83.765,65.401,34.67,128.333,34.67
				c62.935,0,115.865,49.095,120.502,111.771l0.163,2.228l-4.449,0.329l-0.166-2.225c-4.463-60.36-55.439-107.642-116.05-107.642
				c-60.608,0-111.582,47.282-116.05,107.642L12.12,148.998z"/>
			<path fill="#33383D" d="M0.836,146.618v17.791h17.791v-17.791H0.836z M14.164,159.949H5.299v-8.871h8.865V159.949z"/>
			<path fill="#33383D" d="M238.044,146.618v17.791h17.786v-17.791H238.044z M251.367,159.949h-8.862v-8.871h8.862V159.949z"/>
		</g>
	</g>
	<g>
		<g>
			<rect x="9.732" y="35.636" fill="#4B5155" width="237.203" height="2.549"/>
			<path fill="#33383D" d="M17.144,36.911c0,4.093-3.314,7.41-7.412,7.41c-4.095,0-7.41-3.316-7.41-7.41
				c0-4.095,3.314-7.414,7.41-7.414C13.83,29.497,17.144,32.816,17.144,36.911z"/>
			<path fill="#33383D" d="M254.353,36.911c0,4.093-3.32,7.41-7.418,7.41c-4.093,0-7.413-3.316-7.413-7.41
				c0-4.095,3.32-7.414,7.413-7.414C251.032,29.497,254.353,32.816,254.353,36.911z"/>
			<rect x="119.438" y="28.016" fill="#33383D" width="17.794" height="17.792"/>
		</g>
	</g>
</g>
</svg>
